<svg width="89" height="123" viewBox="0 0 89 123" fill="none" xmlns="http://www.w3.org/2000/svg">
<path d="M68.4055 9.99289L51.4862 34.2165C48.0929 39.066 40.9228 39.066 37.5295 34.2165L20.5945 9.99289L27.5728 0L44.5078 24.2236L61.4272 0L68.4055 9.99289Z" fill="white"/>
<path d="M68.4055 79.1552L51.4862 54.9315C48.0929 50.0821 40.9228 50.0821 37.5295 54.9315L20.5945 79.1552L27.5728 89.148L44.5078 64.9244L61.4272 89.148L68.4055 79.1552Z" fill="white"/>
<path d="M79.0237 68.5193L54.8403 51.5718C49.9989 48.1729 49.9989 40.9909 54.8403 37.5919L79.0237 20.6287L89 27.6187L64.8166 44.5819L89 61.5294L79.0237 68.5193Z" fill="white"/>
<path d="M9.9763 68.5193L34.1597 51.5718C39.0011 48.1729 39.0011 40.9909 34.1597 37.5919L9.9763 20.6287L0 27.6187L24.1834 44.5819L0 61.5294L9.9763 68.5193Z" fill="white"/>
<path d="M63.5798 97.2592V98.7881H55.7483V114.285H53.944V98.7881H46.0577V97.2592H63.5798Z" fill="white"/>
<path d="M88.7065 109.216C88.7065 109.863 88.5851 110.459 88.3425 110.969C88.0998 111.478 87.7593 111.925 87.3327 112.309C86.9139 112.682 86.3973 112.999 85.8181 113.254C85.2584 113.509 84.6322 113.713 83.959 113.87C83.3015 114.019 82.5853 114.124 81.8495 114.187C81.1137 114.25 80.3544 114.281 79.5951 114.281C78.5501 114.281 77.4738 114.226 76.421 114.12C75.376 114.015 74.3897 113.885 73.4857 113.728C72.6168 113.579 71.8145 113.411 71.1335 113.238C71.1021 113.227 71.0787 113.227 71.0552 113.219C70.5151 113.07 70.0885 112.944 69.748 112.815L70.9691 111.635C71.1217 111.666 71.2978 111.721 71.474 111.764C71.7714 111.839 72.1002 111.913 72.4407 111.976C72.8908 112.082 73.3761 112.168 73.8927 112.262C74.7929 112.423 75.7713 112.548 76.7811 112.654C78.7576 112.854 80.8123 112.878 82.5813 112.623C83.4385 112.505 84.2095 112.294 84.8435 112.015C85.4815 111.729 85.9864 111.357 86.3582 110.91C86.7222 110.463 86.8944 109.922 86.8944 109.263C86.8944 108.71 86.7417 108.287 86.4443 107.946C86.1351 107.585 85.7085 107.299 85.1684 107.076C84.6087 106.852 83.9473 106.684 83.1919 106.566C82.4326 106.448 81.6107 106.354 80.7419 106.292C79.9826 106.237 79.192 106.229 78.3897 106.217C77.7948 106.198 77.2038 106.186 76.6089 106.162C76.1784 106.143 75.7517 106.119 75.3447 106.088C74.4758 106.001 73.6305 105.896 72.8516 105.747C72.0493 105.598 71.337 105.386 70.7421 105.1C70.1276 104.802 69.6227 104.41 69.2587 103.939C68.8869 103.449 68.6991 102.834 68.6991 102.113C68.6991 101.466 68.8321 100.878 69.0826 100.38C69.337 99.8819 69.6853 99.435 70.1276 99.0743C70.5542 98.7254 71.0708 98.4274 71.6657 98.1922C72.2489 97.957 72.8868 97.7688 73.5678 97.6395C74.2371 97.5022 74.9533 97.4042 75.6891 97.3415C77.3603 97.2121 79.0511 97.2357 80.6558 97.3846C81.5364 97.4591 82.3817 97.565 83.1723 97.7139C83.822 97.8315 84.4247 97.9492 84.9649 98.0864C85.0744 98.1177 85.184 98.1413 85.2936 98.1726C85.7006 98.2785 86.0529 98.3961 86.3582 98.5137L85.3014 99.533L85.1136 99.7133C84.8709 99.6388 84.6204 99.5643 84.3543 99.5016C84.1351 99.4467 83.9042 99.384 83.6616 99.3409C83.2428 99.235 82.8044 99.1488 82.3661 99.086C81.6616 98.9684 80.9375 98.8861 80.19 98.8195C78.4092 98.6823 76.6637 98.7019 75.0707 98.9057C74.1706 99.0233 73.3565 99.2154 72.6755 99.4781C72.0062 99.7447 71.4544 100.086 71.0708 100.521C70.6873 100.936 70.4994 101.446 70.4994 102.093C70.4994 102.559 70.6442 102.92 70.9299 103.21C71.2391 103.52 71.6775 103.775 72.2137 103.967C72.7733 104.159 73.4348 104.308 74.1901 104.414C74.9494 104.508 75.7713 104.563 76.6284 104.563H79.3211C79.5755 104.563 79.826 104.563 80.0804 104.582C80.7497 104.594 81.4111 104.637 82.0491 104.712C82.9297 104.818 83.7751 104.955 84.5539 105.135C85.3562 105.327 86.0685 105.582 86.6634 105.911C87.2779 106.252 87.775 106.699 88.135 107.229C88.5069 107.77 88.6947 108.44 88.6947 109.216H88.7065Z" fill="white"/>
<path d="M27.8741 106.276H39.8895V104.723H27.8741V98.792H40.7623V97.2631H26.8839C26.7078 97.2631 26.5748 97.2749 26.4769 97.3062C26.3008 97.3494 26.2029 97.4591 26.1599 97.5258C26.1051 97.6238 26.0816 97.7257 26.0738 97.8668C26.0738 97.9531 26.062 98.0746 26.062 98.2314V113.497C26.062 113.63 26.0738 113.728 26.0738 113.795C26.0855 113.905 26.1168 114.003 26.1599 114.07C26.2264 114.179 26.3243 114.246 26.4456 114.269C26.5121 114.293 26.5982 114.293 26.7196 114.293H40.7623V112.776H27.8741V106.284V106.276Z" fill="white"/>
<path d="M19.0407 97.2708L10.4264 112.219L1.80034 97.2708H0.0195618L9.5262 113.768C9.5262 113.768 9.97629 114.285 10.4225 114.285C10.8686 114.285 11.3187 113.756 11.3187 113.756L20.8215 97.2669H19.0407V97.2708Z" fill="white"/>
</svg>
