<svg width="29" height="26" viewBox="0 0 29 26" fill="none" xmlns="http://www.w3.org/2000/svg">
<g clip-path="url(#clip0_63_1812)">
<path d="M-0.000169754 16.9384C-0.000169754 16.7567 0.0762005 16.5836 0.209145 16.4616L2.829 14.0523L6.84279 8.41863C6.96386 8.25471 7.1545 8.15866 7.3559 8.16096H9.67819L10.4923 5.40365C10.5709 5.12873 10.8187 4.94007 11.1004 4.94007H13.4827C13.7898 4.93375 14.0563 5.15288 14.1163 5.45887L14.6356 8.16096H26.6555C27.2387 8.16096 27.7988 8.39447 28.2135 8.81089C28.6287 9.22788 28.8652 9.79383 28.8731 10.3868L28.9998 20.8127C29.0072 21.4155 28.7769 21.9964 28.3606 22.4254C27.9436 22.8545 27.3756 23.0961 26.7822 23.0961H25.6638C25.4827 24.1872 24.8033 25.1264 23.8314 25.6256C22.8601 26.1249 21.7128 26.1249 20.7414 25.6256C19.7701 25.1264 19.0895 24.1877 18.9091 23.0961H11.648C11.467 24.1872 10.787 25.1264 9.81566 25.6256C8.84431 26.1249 7.69703 26.1249 6.72625 25.6256C5.75491 25.1264 5.07491 24.1877 4.89388 23.0961H2.22651C1.63816 23.0961 1.07413 22.8585 0.658327 22.4358C0.242523 22.0131 0.00888062 21.4396 0.00888062 20.8415L-0.000169754 16.9379V16.9384ZM4.54257 13.8395H10.9641C11.3143 13.8395 11.5977 13.5513 11.5977 13.1953V9.44931H7.67893L4.54257 13.8395ZM12.9633 6.22843H11.5694L11.015 8.16096H13.3435L12.9633 6.22843ZM22.287 24.6973C22.8601 24.6973 23.4094 24.4661 23.8144 24.0537C24.2195 23.6419 24.4475 23.0828 24.4475 22.5008C24.4475 21.9187 24.2201 21.3597 23.8144 20.9473C23.4094 20.5355 22.8595 20.3043 22.287 20.3043C21.7145 20.3043 21.1646 20.5355 20.759 20.9473C20.3539 21.3591 20.1265 21.9182 20.1265 22.5008C20.1276 23.0828 20.355 23.6413 20.7601 24.0531C21.1652 24.465 21.7139 24.6967 22.287 24.6973ZM8.25879 24.6973C8.83187 24.6973 9.38118 24.4661 9.78681 24.0537C10.1919 23.6419 10.4193 23.0828 10.4193 22.5008C10.4193 21.9187 10.1919 21.3597 9.78681 20.9473C9.38175 20.5355 8.83187 20.3043 8.25879 20.3043C7.68572 20.3043 7.1364 20.5355 6.73134 20.9473C6.32629 21.3591 6.0983 21.9182 6.0983 22.5008C6.09943 23.0828 6.32685 23.6413 6.73191 24.0531C7.13697 24.465 7.68572 24.6967 8.25879 24.6973ZM1.26365 20.8323C1.26365 21.0882 1.36378 21.3344 1.54198 21.5155C1.72019 21.6967 1.96175 21.7985 2.21406 21.7985H4.90067C5.11169 20.7391 5.79395 19.8395 6.74775 19.3622C7.70156 18.8853 8.81942 18.8853 9.77323 19.3622C10.727 19.839 11.4093 20.7391 11.6203 21.7985H18.9351C19.1461 20.7391 19.8284 19.8395 20.7822 19.3622C21.736 18.8853 22.8533 18.8853 23.8076 19.3622C24.7614 19.839 25.4437 20.7391 25.6547 21.7985H26.7828C27.0345 21.7985 27.2766 21.6967 27.4548 21.5155C27.633 21.3344 27.7332 21.0882 27.7332 20.8323L27.6065 10.4064C27.6065 10.1504 27.5063 9.90426 27.3281 9.72309C27.1499 9.54191 26.9084 9.44011 26.656 9.44011H12.8655V13.1959C12.8655 13.7084 12.6652 14.2001 12.3088 14.5625C11.9524 14.9248 11.4687 15.1284 10.9646 15.1284H3.5452L1.26422 17.2254V20.8328L1.26365 20.8323Z" fill="#0056F1"/>
<path d="M18.9447 11.9685H20.2119V13.9557H22.1665V15.244H20.2119V17.2312H18.9447V15.244H16.993V13.9557H18.9447V11.9685Z" fill="#0056F1"/>
<path d="M11.6488 2.73775V0.644177C11.6488 0.288154 11.9322 0 12.2824 0C12.6326 0 12.916 0.288154 12.916 0.644177V2.73775C12.916 3.09377 12.632 3.38193 12.2824 3.38193C11.9328 3.38193 11.6488 3.09377 11.6488 2.73775Z" fill="#0056F1"/>
<path d="M8.34132 4.49602L6.79238 2.92124C6.54459 2.66932 6.54459 2.26154 6.79238 2.00962C7.04016 1.7577 7.44126 1.7577 7.68904 2.00962L9.23799 3.5844C9.48577 3.83632 9.48577 4.24411 9.23799 4.49602C8.9902 4.74794 8.58911 4.74794 8.34132 4.49602Z" fill="#0056F1"/>
<path d="M15.7953 4.68292C15.5396 4.68177 15.3104 4.52475 15.2126 4.28491C15.1147 4.04449 15.1684 3.76841 15.3489 3.58436L16.895 2.00901C17.1428 1.75709 17.5439 1.75709 17.7917 2.00901C18.0395 2.26093 18.0395 2.66871 17.7917 2.92063L16.2428 4.49541C16.124 4.61562 15.9633 4.68234 15.7958 4.68234L15.7953 4.68292Z" fill="#0056F1"/>
</g>
<defs>
<clipPath id="clip0_63_1812">
<rect width="29" height="26" fill="white" transform="matrix(-1 0 0 1 29 0)"/>
</clipPath>
</defs>
</svg>
