<svg width="24" height="24" viewBox="0 0 24 24" fill="none" xmlns="http://www.w3.org/2000/svg">
<path d="M9.25001 21.1666H14.75C19.3333 21.1666 21.1667 19.3333 21.1667 14.7499V9.24992C21.1667 4.66659 19.3333 2.83325 14.75 2.83325H9.25001C4.66668 2.83325 2.83334 4.66659 2.83334 9.24992V14.7499C2.83334 19.3333 4.66668 21.1666 9.25001 21.1666Z" stroke="#354961" stroke-width="1.5" stroke-linecap="round" stroke-linejoin="round"/>
<path d="M17.5 8.10409V14.2916C17.5 13.2833 16.675 12.4583 15.6667 12.4583H8.33333C7.325 12.4583 6.5 13.2833 6.5 14.2916V8.10409C6.5 7.09575 7.325 6.27075 8.33333 6.27075H15.6667C16.675 6.27075 17.5 7.09575 17.5 8.10409Z" stroke="#354961" stroke-width="1.5" stroke-linecap="round" stroke-linejoin="round"/>
<path d="M18.4167 15.4375H17.5" stroke="#354961" stroke-width="1.5" stroke-linecap="round" stroke-linejoin="round"/>
<path d="M6.50001 15.4375H5.58334" stroke="#354961" stroke-width="1.5" stroke-linecap="round" stroke-linejoin="round"/>
<path d="M17.5 13.8333V11.0833C17.5 10.075 16.675 9.25 15.6667 9.25H8.33333C7.325 9.25 6.5 10.075 6.5 11.0833V13.8333" stroke="#354961" stroke-width="1.5" stroke-linecap="round" stroke-linejoin="round"/>
<path d="M17.5 14.2916V15.4374H14.2917C14.2917 16.7024 13.265 17.7291 12 17.7291C10.735 17.7291 9.70833 16.7024 9.70833 15.4374H6.5V14.2916C6.5 13.2833 7.325 12.4583 8.33333 12.4583H15.6667C16.675 12.4583 17.5 13.2833 17.5 14.2916Z" stroke="#354961" stroke-width="1.5" stroke-linecap="round" stroke-linejoin="round"/>
</svg>
