<svg width="41" height="34" viewBox="0 0 41 34" fill="none" xmlns="http://www.w3.org/2000/svg">
<path d="M41 21.1212C41 14.0195 35.2527 8.24242 28.1875 8.24242C27.0756 8.24242 25.9801 8.38593 24.9176 8.6665C23.1769 3.62814 18.4097 0 12.8125 0C5.74732 0 0 5.77798 0 12.8788C0 14.9698 0.509754 17.0368 1.47618 18.8803L1.02866 23.5995C1.00029 23.9058 1.10828 24.2084 1.32426 24.4255C1.54025 24.6426 1.84317 24.7512 2.14609 24.7227L6.84096 24.2728C8.67498 25.2452 10.7323 25.7576 12.8125 25.7576C13.94 25.7576 15.0336 25.6095 16.076 25.3326C17.8423 30.4859 22.6781 34 28.1875 34C30.2677 34 32.3241 33.4876 34.1581 32.5162L38.853 32.966C39.1577 32.9936 39.4588 32.886 39.6748 32.6689C39.8908 32.4518 39.9988 32.1482 39.9704 31.8428L39.5229 27.1236C40.4902 25.2801 41 23.2122 41 21.1212ZM12.8125 19.5758C12.246 19.5758 11.7875 19.1149 11.7875 18.5455C11.7875 17.976 12.246 17.5152 12.8125 17.5152C13.379 17.5152 13.8375 17.976 13.8375 18.5455C13.8375 19.1149 13.379 19.5758 12.8125 19.5758ZM13.8375 15.4545C13.8375 16.0231 13.3781 16.4848 12.8125 16.4848C12.2469 16.4848 11.7875 16.0231 11.7875 15.4545V13.3939C11.7875 12.8254 12.2469 12.3636 12.8125 12.3636C13.9437 12.3636 14.8625 11.4391 14.8625 10.303C14.8625 9.16694 13.9427 8.24242 12.8125 8.24242C11.6823 8.24242 10.7625 9.16694 10.7625 10.303C10.7625 10.8715 10.3031 11.3333 9.7375 11.3333C9.17192 11.3333 8.7125 10.8715 8.7125 10.303C8.7125 8.03084 10.552 6.18182 12.8125 6.18182C15.073 6.18182 16.9125 8.03084 16.9125 10.303C16.9125 12.2201 15.6038 13.8355 13.8375 14.2936V15.4545ZM37.5791 26.4034C37.4775 26.5864 37.4326 26.7962 37.4528 27.005L37.8124 30.795L34.0419 30.4335C33.836 30.4151 33.6255 30.4583 33.4434 30.5604C31.8436 31.462 30.027 31.9385 28.1884 31.9385C23.5558 31.9385 19.4906 28.981 18.0107 24.6454C22.4923 22.6372 25.6259 18.1205 25.6259 12.8779C25.6259 12.1217 25.5573 11.3821 25.4319 10.6609C26.3269 10.4226 27.2504 10.3021 28.1884 10.3021C34.1233 10.3021 38.9509 15.1547 38.9509 21.1203C38.9509 22.9684 38.4769 24.7953 37.58 26.4024L37.5791 26.4034Z" fill="#34A853"/>
</svg>
