<svg width="22" height="22" viewBox="0 0 22 22" fill="none" xmlns="http://www.w3.org/2000/svg">
<path d="M4.45999 17.49V14.57C4.45999 13.6 5.21999 12.73 6.29999 12.73C7.26999 12.73 8.13999 13.49 8.13999 14.57V17.38C8.13999 19.33 6.51999 20.95 4.56999 20.95C2.61999 20.95 0.999986 19.32 0.999986 17.38V11.22C0.889986 5.59999 5.32999 1.04999 10.95 1.04999C16.57 1.04999 21 5.59999 21 11.11V17.27C21 19.22 19.38 20.84 17.43 20.84C15.48 20.84 13.86 19.22 13.86 17.27V14.46C13.86 13.49 14.62 12.62 15.7 12.62C16.67 12.62 17.54 13.38 17.54 14.46V17.49" stroke="#354961" stroke-linecap="round" stroke-linejoin="round"/>
</svg>
