<svg width="17" height="19" viewBox="0 0 17 19" fill="none" xmlns="http://www.w3.org/2000/svg">
<path d="M2.51499 4.37338C2.47307 4.37338 2.42977 4.36713 2.38738 4.35329L0.27557 3.67079C0.126306 3.62255 0.0194254 3.49436 0.00237984 3.34294C-0.0146658 3.19152 0.0608877 3.04368 0.195871 2.96507L2.71079 1.50092C2.90198 1.39015 3.14937 1.45 3.26362 1.63492C3.37833 1.81983 3.31614 2.06014 3.12541 2.17091L1.36142 3.19822L2.64215 3.61228C2.8536 3.68017 2.96785 3.90171 2.89737 4.10673C2.84116 4.27021 2.68361 4.37383 2.51499 4.37383V4.37338Z" fill="#354961"/>
<path d="M14.153 14.2428C14.0484 14.2428 13.9452 14.2035 13.8678 14.1284L6.51472 6.99929C5.74168 6.2498 5.74168 5.03086 6.51472 4.28137C6.67227 4.12861 6.92704 4.12861 7.08505 4.28137C7.24261 4.43413 7.24261 4.68113 7.08505 4.83433C6.62667 5.27876 6.62667 6.00279 7.08505 6.44722L13.373 12.5437L11.8095 6.90192C11.5561 5.98805 11.0576 5.15191 10.3679 4.48281L9.73956 3.87357C9.29499 3.44299 8.52011 3.44299 8.076 3.87357C7.91891 4.02633 7.66368 4.02633 7.50567 3.87357C7.34811 3.72081 7.34811 3.47381 7.50567 3.3206C7.87975 2.95792 8.37776 2.75781 8.90755 2.75781C9.43735 2.75781 9.9349 2.95792 10.3094 3.3206L10.9378 3.92985C11.7274 4.69542 12.2982 5.65306 12.588 6.69824L14.5423 13.7505C14.5893 13.9216 14.5128 14.1021 14.3548 14.1905C14.2917 14.2258 14.2221 14.2428 14.153 14.2428Z" fill="#354961"/>
<path d="M5.67438 6.71389C5.64351 6.71389 5.6131 6.71389 5.58224 6.713C3.71966 6.66297 2.16344 5.1546 2.1123 3.3501C2.1123 3.24558 2.1123 3.15535 2.11553 3.06513C2.1768 2.00788 2.75128 1.08107 3.69248 0.515148C4.67053 -0.0726556 5.88307 -0.163328 6.93621 0.273505C7.90182 0.675499 8.73291 1.32718 9.3401 2.15796L10.0639 3.14776C10.1924 3.32374 10.1495 3.56762 9.96803 3.69224C9.78605 3.81775 9.53498 3.77576 9.40598 3.59933L8.68223 2.60953C8.16073 1.89622 7.44712 1.33656 6.61833 0.991734C5.80752 0.655399 4.87231 0.725525 4.11678 1.17933C3.40224 1.60902 2.96643 2.30938 2.92036 3.10131C2.91759 3.17501 2.91759 3.2554 2.91759 3.33893C2.95721 4.72491 4.16192 5.89204 5.60251 5.93089C5.86418 5.93804 6.12309 5.91035 6.36081 5.85094C6.57779 5.79734 6.79616 5.9233 6.85144 6.13234C6.90673 6.34137 6.77681 6.55443 6.56121 6.60848C6.28065 6.6786 5.98258 6.71344 5.67438 6.71344V6.71389Z" fill="#354961"/>
<path d="M13.5615 13.6688C13.5057 13.6688 13.4486 13.6576 13.3942 13.6335L7.82492 11.172C7.19378 10.8928 6.60409 10.5333 6.07199 10.1036C5.13955 9.34961 4.39231 8.38081 3.91135 7.30078L3.17792 5.65529C3.08947 5.45742 3.18345 5.22694 3.388 5.14163C3.59162 5.05587 3.8298 5.14699 3.91779 5.34531L4.65122 6.9908C5.08242 7.95871 5.75227 8.82747 6.58797 9.50281C7.06478 9.88783 7.5932 10.2103 8.15939 10.4605L13.7287 12.922C13.9309 13.0118 14.0208 13.2436 13.9282 13.4397C13.8609 13.5839 13.7144 13.6684 13.5615 13.6684V13.6688Z" fill="#354961"/>
<path d="M16.596 19C16.5698 19 16.5435 18.9977 16.5168 18.9924L14.7569 18.6511C14.6206 18.6248 14.5077 18.5314 14.4584 18.4055L12.3461 12.9446C12.2678 12.7423 12.3738 12.5172 12.582 12.4412C12.7907 12.3662 13.0229 12.4676 13.1012 12.6699L15.1347 17.9275L15.8667 18.0696L13.771 14.0068C13.6715 13.8138 13.7522 13.5789 13.9512 13.4824C14.1511 13.3868 14.3925 13.4645 14.492 13.657L16.9563 18.4349C17.0254 18.5685 17.0093 18.7284 16.9162 18.8472C16.8388 18.945 16.7199 19.0009 16.5955 19.0009L16.596 19Z" fill="#354961"/>
<path d="M10.2597 14.5635C10.1293 14.5635 10.0017 14.5023 9.92383 14.3893L9.33967 13.5393H8.85133C8.70898 13.5393 8.57676 13.4665 8.50443 13.3477C8.43164 13.2289 8.42934 13.0815 8.49798 12.9604L9.38159 11.3989C9.48893 11.21 9.73356 11.1403 9.92889 11.2444C10.1242 11.348 10.1956 11.5861 10.0883 11.7755L9.53224 12.7581H9.55527C9.69025 12.7581 9.81602 12.8233 9.89066 12.9323L10.5946 13.9565C10.7181 14.136 10.6678 14.3786 10.4826 14.4983C10.414 14.5425 10.3361 14.5639 10.2592 14.5639L10.2597 14.5635Z" fill="#354961"/>
<path d="M7.44301 14.5634C7.36607 14.5634 7.28821 14.542 7.22003 14.4978C7.03483 14.378 6.98462 14.1355 7.10808 13.956L7.81202 12.9318C7.88665 12.8232 8.01288 12.7576 8.1474 12.7576H8.85134C9.07385 12.7576 9.25445 12.9322 9.25445 13.1484C9.25445 13.3646 9.07385 13.5392 8.85134 13.5392H8.36347L7.77931 14.3892C7.70145 14.5022 7.57384 14.563 7.44347 14.563L7.44301 14.5634Z" fill="#354961"/>
<path d="M6.3876 12.8568C6.25722 12.8568 6.12961 12.7956 6.05175 12.6826L5.4676 11.8326H4.97926C4.83691 11.8326 4.70469 11.7598 4.63236 11.641C4.55957 11.5222 4.55727 11.3748 4.62591 11.2542L5.50952 9.69266C5.6164 9.50283 5.86103 9.43359 6.05682 9.53766C6.25216 9.64129 6.32356 9.87936 6.21622 10.0683L5.66017 11.0514H5.6832C5.81818 11.0514 5.94395 11.1166 6.01858 11.2256L6.72252 12.2498C6.84599 12.4293 6.79577 12.6719 6.61057 12.7916C6.54193 12.8358 6.46407 12.8572 6.38714 12.8572L6.3876 12.8568Z" fill="#354961"/>
<path d="M3.57045 12.8566C3.49351 12.8566 3.41565 12.8352 3.34747 12.791C3.16227 12.6713 3.11206 12.4287 3.23552 12.2492L3.93946 11.225C4.01409 11.1164 4.14032 11.0508 4.27484 11.0508H4.97878C5.2013 11.0508 5.38189 11.2254 5.38189 11.4416V12.4658C5.38189 12.682 5.2013 12.8566 4.97878 12.8566C4.75627 12.8566 4.57568 12.682 4.57568 12.4658V11.8324H4.49045L3.90629 12.6824C3.82843 12.7954 3.70082 12.8562 3.57045 12.8562V12.8566Z" fill="#354961"/>
<path d="M8.85135 14.5634C8.62883 14.5634 8.44824 14.3888 8.44824 14.1726V13.1484C8.44824 12.9322 8.62883 12.7576 8.85135 12.7576C9.07386 12.7576 9.25445 12.9322 9.25445 13.1484V14.1726C9.25445 14.3888 9.07386 14.5634 8.85135 14.5634Z" fill="#354961"/>
<path d="M5.33257 1.90486C5.33257 2.1331 5.14184 2.31802 4.90643 2.31802C4.67101 2.31802 4.48029 2.1331 4.48029 1.90486C4.48029 1.67662 4.67101 1.4917 4.90643 1.4917C5.14184 1.4917 5.33257 1.67662 5.33257 1.90486Z" fill="#354961"/>
<path d="M3.97906 2.95271L5.62834 2.41582C5.62834 2.41582 5.10638 1.76727 3.97906 2.95271Z" fill="#354961"/>
</svg>
