<svg width="36" height="34" viewBox="0 0 36 34" fill="none" xmlns="http://www.w3.org/2000/svg">
<path d="M27.75 17.7392C25.5618 17.7392 23.4635 18.5958 21.916 20.1208C20.3692 21.6459 19.4994 23.7138 19.4994 25.8703C19.4994 28.0268 20.3685 30.0947 21.916 31.6198C23.4635 33.1448 25.5618 34.0007 27.75 34.0007C29.9382 34.0007 32.0366 33.1442 33.584 31.6191C35.1315 30.094 36.0007 28.0261 36.0007 25.8696C36.0007 23.7131 35.1315 21.6452 33.584 20.1201C32.0366 18.5958 29.9382 17.7385 27.75 17.7385V17.7392ZM31.1702 24.8051L27.4199 28.501C27.2089 28.7083 26.9227 28.825 26.6253 28.825C26.3279 28.825 26.041 28.7083 25.83 28.501L24.3298 27.0227C24.0624 26.7399 23.9642 26.3398 24.0701 25.9671C24.1759 25.5944 24.4719 25.3041 24.8494 25.1991C25.2275 25.0947 25.6329 25.1915 25.9205 25.4551L26.6253 26.1496L29.5803 23.2375C29.8672 22.9739 30.2732 22.8765 30.6514 22.9808C31.0295 23.0851 31.3248 23.3768 31.4307 23.7488C31.5365 24.1215 31.4383 24.521 31.1709 24.8044L31.1702 24.8051Z" fill="#4285F4"/>
<path d="M18 16.2609C18 17.0769 17.3286 17.7392 16.4999 17.7392C15.6711 17.7392 14.9998 17.0776 14.9998 16.2609C14.9998 15.4441 15.6711 14.7825 16.4999 14.7825C17.3286 14.7825 18 15.4441 18 16.2609Z" fill="#4285F4"/>
<path d="M8.99999 16.2609C8.99999 17.0769 8.32863 17.7392 7.49987 17.7392C6.67112 17.7392 5.99976 17.0776 5.99976 16.2609C5.99976 15.4441 6.67112 14.7825 7.49987 14.7825C8.32863 14.7825 8.99999 15.4441 8.99999 16.2609Z" fill="#4285F4"/>
<path d="M8.99999 24.3912C8.99999 25.2073 8.32863 25.8696 7.49987 25.8696C6.67112 25.8696 5.99976 25.208 5.99976 24.3912C5.99976 23.5745 6.67112 22.9128 7.49987 22.9128C8.32863 22.9128 8.99999 23.5745 8.99999 24.3912Z" fill="#4285F4"/>
<path d="M23.6773 7.39121H24.3222C24.8745 7.34386 25.3857 7.08511 25.7457 6.67056C26.1065 6.25601 26.2869 5.7186 26.2493 5.17364V2.21757C26.2869 1.67261 26.1058 1.13521 25.7457 0.720659C25.385 0.306108 24.8738 0.0473576 24.3222 0H23.6773C23.1251 0.0473576 22.6139 0.306108 22.2538 0.720659C21.8931 1.13521 21.7127 1.6733 21.7503 2.21757V5.17433C21.7127 5.7186 21.8938 6.25669 22.2538 6.67124C22.6146 7.08579 23.1258 7.34454 23.6773 7.3919V7.39121Z" fill="#4285F4"/>
<path d="M8.67754 7.39121H9.32243C9.8747 7.34386 10.3859 7.08511 10.7459 6.67056C11.1067 6.25601 11.2871 5.7186 11.2502 5.17364V2.21757C11.2878 1.67261 11.1067 1.13521 10.7459 0.720659C10.3852 0.306108 9.87401 0.0473576 9.32243 0H8.67754C8.12596 0.0473576 7.61478 0.306108 7.25403 0.720659C6.89328 1.13521 6.7129 1.6733 6.74981 2.21757V5.17433C6.7122 5.7186 6.89328 6.25669 7.25403 6.67124C7.61478 7.08579 8.12596 7.34454 8.67754 7.3919V7.39121Z" fill="#4285F4"/>
<path d="M3.00023 29.5656C2.60257 29.5656 2.22092 29.4098 1.93957 29.1325C1.65821 28.8552 1.50012 28.4791 1.50012 28.0872V12.1956C1.50012 11.9918 1.66796 11.8264 1.8748 11.8264H31.125C31.2246 11.8264 31.32 11.8655 31.3903 11.9341C31.4607 12.0035 31.5003 12.0975 31.5003 12.1956V17C32.0227 17.2142 32.5248 17.4736 32.9998 17.7763C33.0039 17.7495 33.0039 17.7221 32.9998 17.6953V5.91355C32.9998 5.12906 32.6836 4.37751 32.1216 3.82295C31.5589 3.26839 30.7956 2.95679 30.0002 2.95679H27.7501C27.5432 2.95679 27.3754 3.1222 27.3754 3.32673V5.17436C27.3754 5.95885 27.0592 6.71039 26.4965 7.26495C25.9338 7.81952 25.1705 8.13112 24.3751 8.13112H23.6251C22.8291 8.13112 22.0665 7.81952 21.5038 7.26495C20.941 6.71039 20.6249 5.95816 20.6249 5.17436V3.32673C20.6249 3.22858 20.5852 3.13455 20.5148 3.06523C20.4445 2.99591 20.3491 2.95679 20.2502 2.95679H12.7503C12.5428 2.95679 12.3749 3.1222 12.3749 3.32673V5.17436C12.3749 5.95885 12.0587 6.71039 11.496 7.26495C10.9333 7.81952 10.17 8.13112 9.37468 8.13112H8.62462C7.8293 8.13112 7.06601 7.81952 6.50329 7.26495C5.94057 6.71039 5.62439 5.95816 5.62439 5.17436V3.32673C5.62439 3.22858 5.58469 3.13455 5.51435 3.06523C5.44401 2.99591 5.3486 2.95679 5.24901 2.95679H3.00023C2.20421 2.95679 1.44162 3.26839 0.878898 3.82295C0.31618 4.37751 0 5.12906 0 5.91355V28.0879C0 28.8724 0.31618 29.6239 0.878898 30.1785C1.44162 30.733 2.20491 31.0446 3.00023 31.0446H19.5377C19.2292 30.5766 18.966 30.0817 18.7501 29.5663H3.00023V29.5656Z" fill="#4285F4"/>
</svg>
