<svg width="20" height="20" viewBox="0 0 20 20" fill="none" xmlns="http://www.w3.org/2000/svg">
<g opacity="0.5">
<path d="M5.63339 18.3334H14.3667C16.6667 18.3334 17.5834 16.9251 17.6917 15.2084L18.1251 8.32508C18.2417 6.52508 16.8084 5.00008 15.0001 5.00008C14.4917 5.00008 14.0251 4.70841 13.7917 4.25841L13.1917 3.05008C12.8084 2.29175 11.8084 1.66675 10.9584 1.66675H9.05006C8.19172 1.66675 7.19172 2.29175 6.80839 3.05008L6.20839 4.25841C5.97506 4.70841 5.50839 5.00008 5.00006 5.00008C3.19172 5.00008 1.75839 6.52508 1.87506 8.32508L2.30839 15.2084C2.40839 16.9251 3.33339 18.3334 5.63339 18.3334Z" fill="#354961" stroke="#354961" stroke-linecap="round" stroke-linejoin="round"/>
<path d="M8.75 6.66675H11.25H8.75Z" fill="#354961"/>
<path d="M8.75 6.66675H11.25" stroke="#F5F6F7" stroke-linecap="round" stroke-linejoin="round"/>
<path d="M10.0001 15.0002C11.4917 15.0002 12.7084 13.7835 12.7084 12.2918C12.7084 10.8002 11.4917 9.5835 10.0001 9.5835C8.50841 9.5835 7.29175 10.8002 7.29175 12.2918C7.29175 13.7835 8.50841 15.0002 10.0001 15.0002Z" fill="#354961" stroke="#F5F6F7" stroke-linecap="round" stroke-linejoin="round"/>
</g>
</svg>
