<svg width="16" height="16" viewBox="0 0 16 16" fill="none" xmlns="http://www.w3.org/2000/svg">
<path d="M4.50662 14.6667H11.4933C13.3333 14.6667 14.0666 13.54 14.1533 12.1667L14.4999 6.66C14.5933 5.21999 13.4466 3.99999 11.9999 3.99999C11.5933 3.99999 11.2199 3.76666 11.0333 3.40666L10.5533 2.44C10.2466 1.83333 9.44662 1.33333 8.76662 1.33333H7.23995C6.55328 1.33333 5.75328 1.83333 5.44662 2.44L4.96662 3.40666C4.77995 3.76666 4.40662 3.99999 3.99995 3.99999C2.55328 3.99999 1.40662 5.21999 1.49995 6.66L1.84662 12.1667C1.92662 13.54 2.66662 14.6667 4.50662 14.6667Z" fill="white" stroke="white" stroke-linecap="round" stroke-linejoin="round"/>
<path d="M7 5.33333H9H7Z" fill="white"/>
<path d="M7 5.33333H9" stroke="#0056F1" stroke-linecap="round" stroke-linejoin="round"/>
<path d="M8.00004 12C9.19337 12 10.1667 11.0267 10.1667 9.83334C10.1667 8.64001 9.19337 7.66667 8.00004 7.66667C6.80671 7.66667 5.83337 8.64001 5.83337 9.83334C5.83337 11.0267 6.80671 12 8.00004 12Z" fill="white" stroke="#0056F1" stroke-linecap="round" stroke-linejoin="round"/>
</svg>
