<svg width="20" height="17" viewBox="0 0 20 17" fill="none" xmlns="http://www.w3.org/2000/svg">
<path d="M13.5079 17H12.8858C12.1919 17 11.5363 16.7108 11.0399 16.1849C10.5456 15.6519 10.2744 14.9516 10.2744 14.2107C10.2744 13.4697 10.5456 12.7637 11.0387 12.2374C11.5363 11.7101 12.1919 11.4209 12.8858 11.4209C13.283 11.4209 13.6563 11.5861 13.9369 11.8859C14.2176 12.1857 14.3722 12.5844 14.3722 13.0092C14.3722 13.1439 14.3565 13.2768 14.3255 13.4044C14.4428 13.3307 14.5557 13.2476 14.6627 13.1558L15.2827 12.629C15.6473 12.3173 15.9478 11.9137 16.1507 11.462C16.3549 11.0125 16.4623 10.5082 16.4623 10.0031C16.4623 9.10405 15.7779 8.37283 14.9363 8.37283H14.5747C14.3746 8.37283 14.213 8.20018 14.213 7.98647C14.213 7.77275 14.3746 7.6001 14.5747 7.6001H14.9363C16.1767 7.6001 17.1857 8.67795 17.1857 10.0031C17.1857 10.6243 17.0534 11.2452 16.8025 11.7984C16.5529 12.3522 16.1834 12.8494 15.7337 13.2335L15.1137 13.7603C14.4846 14.2999 13.6927 14.5975 12.8854 14.5975C12.6854 14.5975 12.5238 14.4248 12.5238 14.2111C12.5238 13.9974 12.6854 13.8248 12.8854 13.8248C13.0855 13.8248 13.281 13.7404 13.4248 13.5863C13.5678 13.4304 13.648 13.2247 13.648 13.0092C13.648 12.7937 13.5691 12.5862 13.4248 12.4321C13.281 12.2784 13.0892 12.1936 12.8854 12.1936C12.3836 12.1936 11.9083 12.4038 11.5487 12.7849C11.1933 13.1646 10.9974 13.6711 10.9974 14.2107C10.9974 14.7503 11.1941 15.2536 11.5508 15.6387C11.9087 16.0175 12.3836 16.2277 12.8854 16.2277H13.5075C14.8252 16.2277 16.0618 15.6797 16.991 14.684L17.8313 13.7908C18.7625 12.7955 19.2763 11.4721 19.2763 10.0658V8.01429C19.2763 6.78322 18.8708 5.5866 18.1342 4.64564C17.6746 4.05527 17.0869 3.57088 16.4359 3.24457C15.7779 2.91517 15.0752 2.74782 14.3469 2.74782H9.14648C8.90593 2.74782 8.67488 2.72795 8.45127 2.70896C7.7263 2.64714 7.3014 2.63213 6.97239 3.0419C6.87402 3.16465 6.71406 3.20836 6.5727 3.15229C6.43093 3.09621 6.33669 2.95138 6.33669 2.79021V0.797455C6.0019 0.843818 5.67744 0.954649 5.38398 1.12421C4.9752 1.35823 4.62801 1.6947 4.37794 2.09829L4.18451 2.40561C4.13946 2.4767 4.07374 2.53013 3.99727 2.55707L3.4583 2.74649C1.60494 3.40751 0.954782 5.20906 0.736546 6.60395C0.729106 6.65649 0.72332 6.71743 0.72332 6.77616C0.72332 6.93865 0.757626 7.09275 0.824998 7.23449C0.993221 7.59083 1.32678 7.81161 1.69629 7.81161H6.90047C7.10052 7.81161 7.26213 7.98426 7.26213 8.19798C7.26213 8.41169 7.10052 8.58434 6.90047 8.58434H1.69629C1.05191 8.58434 0.471191 8.20107 0.18021 7.58377C0.0628255 7.33738 0 7.05787 0 6.77616C0 6.6799 0.00867984 6.57878 0.0227329 6.48252C0.383566 4.17714 1.49252 2.63345 3.23097 2.01395L3.65339 1.86514L3.77573 1.66997C4.08986 1.16262 4.52757 0.737844 5.04051 0.443766C5.54352 0.153662 6.11722 0 6.69794 0C6.89799 0 7.0596 0.172649 7.0596 0.386364V2.04883C7.52335 1.85366 8.03712 1.89649 8.50913 1.93844C8.71828 1.9561 8.93486 1.97465 9.14607 1.97465H14.3465C15.1819 1.97465 15.9878 2.16629 16.7426 2.54426C17.489 2.91826 18.1628 3.4733 18.6898 4.14977C19.5342 5.22894 19.9996 6.6013 19.9996 8.0134V10.0649C19.9996 11.6783 19.4106 13.1955 18.3421 14.337L17.5023 15.2302C16.438 16.3712 15.019 17.0004 13.5079 17.0004V17Z" fill="#354961"/>
<path d="M3.88527 4.59364C3.88527 4.92569 3.63355 5.1946 3.32273 5.1946C3.01191 5.1946 2.76019 4.92569 2.76019 4.59364C2.76019 4.26158 3.01191 3.99268 3.32273 3.99268C3.63355 3.99268 3.88527 4.26158 3.88527 4.59364Z" fill="#354961"/>
<path d="M8.78732 10.389H6.89883C6.77318 10.389 6.65745 10.3197 6.59132 10.2057C6.52519 10.0918 6.5194 9.94963 6.57561 9.82996L7.05755 8.80069L6.57561 7.77186C6.48633 7.58111 6.55866 7.34885 6.73722 7.25347C6.91578 7.15898 7.13277 7.23537 7.22247 7.42612L7.785 8.6276C7.83584 8.73622 7.83584 8.86472 7.785 8.97334L7.4841 9.61625H8.50006L8.96794 7.47513L8.46368 6.39773C8.3744 6.20698 8.44674 5.97472 8.62529 5.87934C8.80385 5.78485 9.02126 5.86124 9.11054 6.05199L9.67307 7.25391C9.71069 7.33472 9.72102 7.42656 9.70159 7.51487L9.13906 10.0905C9.10103 10.2649 8.95513 10.389 8.7869 10.389H8.78732Z" fill="#354961"/>
<path d="M13.288 10.389H11.3995C11.2739 10.389 11.1582 10.3197 11.092 10.2057C11.0259 10.0918 11.0201 9.94963 11.0763 9.82996L11.5583 8.80069L11.0763 7.77186C10.987 7.58111 11.0594 7.34885 11.2379 7.25347C11.4165 7.15898 11.6339 7.23537 11.7232 7.42612L12.2857 8.6276C12.3365 8.73622 12.3365 8.86472 12.2857 8.97334L11.9848 9.61625H13.0008L13.4686 7.47513L12.9644 6.39773C12.8751 6.20698 12.9474 5.97472 13.126 5.87934C13.3046 5.78485 13.5215 5.86124 13.6112 6.05199L14.1738 7.25391C14.2114 7.33472 14.2217 7.42656 14.2023 7.51487L13.6398 10.0905C13.6013 10.2649 13.4558 10.389 13.2876 10.389H13.288Z" fill="#354961"/>
<path d="M11.5801 8.37234H9.3486C9.14855 8.37234 8.98694 8.19969 8.98694 7.98597C8.98694 7.77226 9.14855 7.59961 9.3486 7.59961H11.5801C11.7802 7.59961 11.9418 7.77226 11.9418 7.98597C11.9418 8.19969 11.7802 8.37234 11.5801 8.37234Z" fill="#354961"/>
<path d="M14.5747 8.37234H13.7501C13.5501 8.37234 13.3885 8.19969 13.3885 7.98597C13.3885 7.77226 13.5501 7.59961 13.7501 7.59961H14.5747C14.7748 7.59961 14.9364 7.77226 14.9364 7.98597C14.9364 8.19969 14.7748 8.37234 14.5747 8.37234Z" fill="#354961"/>
<path d="M16.824 10.3894H1.18213C0.982075 10.3894 0.820465 10.2168 0.820465 10.0031V8.19886C0.820465 7.98515 0.982075 7.8125 1.18213 7.8125H7.17824C7.37829 7.8125 7.5399 7.98515 7.5399 8.19886C7.5399 8.41258 7.37829 8.58523 7.17824 8.58523H1.54378V9.61671H16.824C17.0241 9.61671 17.1857 9.78936 17.1857 10.0031C17.1857 10.2168 17.0241 10.3894 16.824 10.3894Z" fill="#354961"/>
<path d="M3.88486 6.6133C3.02721 6.6133 2.32993 5.86795 2.32993 4.95216C2.32993 4.03637 3.02762 3.29102 3.88486 3.29102C4.74209 3.29102 5.4402 4.03637 5.4402 4.95216C5.4402 5.86795 4.74209 6.6133 3.88486 6.6133ZM3.88486 4.0633C3.42606 4.0633 3.05325 4.46159 3.05325 4.95172C3.05325 5.44185 3.42606 5.84013 3.88486 5.84013C4.34365 5.84013 4.71688 5.44185 4.71688 4.95172C4.71688 4.46159 4.34323 4.0633 3.88486 4.0633Z" fill="#354961"/>
</svg>
