<svg width="32" height="32" viewBox="0 0 32 32" fill="none" xmlns="http://www.w3.org/2000/svg">
<path d="M9.01335 29.3334H22.9867C26.6667 29.3334 28.1334 27.0801 28.3067 24.3334L29 13.3201C29.1867 10.4401 26.8934 8.00008 24 8.00008C23.1867 8.00008 22.44 7.53341 22.0667 6.81342L21.1067 4.88008C20.4934 3.66675 18.8934 2.66675 17.5334 2.66675H14.48C13.1067 2.66675 11.5067 3.66675 10.8934 4.88008L9.93335 6.81342C9.56002 7.53341 8.81335 8.00008 8.00002 8.00008C5.10669 8.00008 2.81335 10.4401 3.00002 13.3201L3.69335 24.3334C3.85335 27.0801 5.33335 29.3334 9.01335 29.3334Z" fill="#4D7ABC" stroke="#4D7ABC" stroke-linecap="round" stroke-linejoin="round"/>
<path d="M14 10.6667H18H14Z" fill="#4D7ABC"/>
<path d="M14 10.6667H18" stroke="#F5F6F7" stroke-linecap="round" stroke-linejoin="round"/>
<path d="M16 23.9999C18.3866 23.9999 20.3333 22.0533 20.3333 19.6666C20.3333 17.2799 18.3866 15.3333 16 15.3333C13.6133 15.3333 11.6666 17.2799 11.6666 19.6666C11.6666 22.0533 13.6133 23.9999 16 23.9999Z" fill="#4D7ABC" stroke="#F5F6F7" stroke-linecap="round" stroke-linejoin="round"/>
</svg>
