<svg width="29" height="16" viewBox="0 0 29 16" fill="none" xmlns="http://www.w3.org/2000/svg">
<g clip-path="url(#clip0_63_1819)">
<path d="M22.64 15.9989C24.0767 15.9989 25.2802 14.9794 25.6839 13.5862H27.611C28.3792 13.5862 29.0058 12.9175 28.9995 12.0194L28.0955 5.7487C28.0588 5.49411 27.8532 5.30498 27.611 5.30498H24.7175C21.5871 0 21.1162 0 20.8309 0H10.8869C9.95454 0 7.78997 2.86428 6.09102 5.34639C5.09263 5.52544 0.951198 6.42742 0.459344 9.12103L0 12.0989C0 12.9186 0.626092 13.5873 1.39481 13.5873H3.77438C4.17919 14.9794 5.38313 16 6.81884 16C8.25455 16 9.45902 14.9805 9.86278 13.5873H19.5945C19.9993 14.9788 21.2032 15.9989 22.6395 15.9989H22.64ZM22.64 14.9531C21.414 14.9531 20.4177 13.8905 20.4177 12.5818C20.4177 11.273 21.4135 10.2105 22.64 10.2105C23.8665 10.2105 24.8622 11.273 24.8622 12.5818C24.8622 13.89 23.8659 14.9531 22.64 14.9531ZM23.5566 5.3061H16.2165V1.04578H20.7156C21.123 1.42179 22.3941 3.37346 23.5566 5.3061ZM10.8869 1.04578H15.2365V5.3061H7.34006C8.80723 3.23133 10.4464 1.18566 10.8869 1.04578ZM0.972697 12.1839L1.0545 11.658H3.74973C3.67527 11.9411 3.62231 12.2337 3.62022 12.5421H1.39376C1.16514 12.5421 0.980038 12.3434 0.972697 12.1845V12.1839ZM6.81832 14.9531C5.59235 14.9531 4.59606 13.8905 4.59606 12.5818C4.59606 11.273 5.59183 10.2105 6.81832 10.2105C8.04481 10.2105 9.04058 11.273 9.04058 12.5818C9.04058 13.8905 8.04481 14.9531 6.81832 14.9531ZM6.81832 9.16524C5.74127 9.16524 4.79112 9.73988 4.21117 10.6116H1.2181L1.4226 9.30456C1.76134 7.4469 5.10417 6.54828 6.40354 6.3502H27.1915L28.0257 12.0972C28.0257 12.3429 27.8412 12.5398 27.611 12.5398H25.8381C25.8171 10.6743 24.3929 9.16356 22.64 9.16356C20.887 9.16356 19.4623 10.6743 19.4419 12.5398H10.0169C9.99597 10.6754 8.57179 9.16468 6.81832 9.16468V9.16524Z" fill="#354961"/>
<path d="M13.1465 7.79886H14.5019C14.7725 7.79886 14.9912 7.56385 14.9912 7.27681C14.9912 6.98977 14.7709 6.75476 14.5019 6.75476H13.1465C12.8759 6.75476 12.6572 6.98977 12.6572 7.27681C12.6572 7.56385 12.8764 7.79886 13.1465 7.79886Z" fill="#354961"/>
<path d="M21.2827 7.79886H22.6382C22.9087 7.79886 23.1274 7.56385 23.1274 7.27681C23.1274 6.98977 22.9072 6.75476 22.6382 6.75476H21.2827C21.0121 6.75476 20.7935 6.98977 20.7935 7.27681C20.7935 7.56385 21.0137 7.79886 21.2827 7.79886Z" fill="#354961"/>
</g>
<defs>
<clipPath id="clip0_63_1819">
<rect width="29" height="16" fill="white"/>
</clipPath>
</defs>
</svg>
