<svg width="20" height="19" viewBox="0 0 20 19" fill="none" xmlns="http://www.w3.org/2000/svg">
<path d="M8.08006 17.0699C7.84227 17.0727 7.63844 16.8969 7.60064 16.6558C7.58146 16.5217 7.53762 16.3933 7.47133 16.2761L5.68292 16.8479C5.05555 17.04 4.37777 16.9414 3.82766 16.5769L2.14007 15.4085C1.74776 15.1431 1.45517 14.747 1.31161 14.2873C1.16806 13.8276 1.18121 13.3307 1.34887 12.88L1.459 12.6186C1.68748 12.1589 1.81844 11.6546 1.84255 11.1397C1.11381 7.04782 3.76026 5.15033 6.45493 3.82919C6.57055 3.76159 6.70862 3.74638 6.83574 3.78694C6.96286 3.82807 7.06751 3.92159 7.12504 4.04497C7.18257 4.16835 7.1875 4.31089 7.13874 4.43821C7.08997 4.56554 6.9919 4.66638 6.86807 4.71596C3.41617 6.41175 2.2754 8.1667 2.79264 10.9966C2.79483 11.0214 2.79483 11.0462 2.79264 11.0704C2.77894 11.7436 2.61511 12.4051 2.31321 13.0028L2.21732 13.2394C2.12856 13.4794 2.12308 13.7437 2.20034 13.987C2.27814 14.231 2.4343 14.44 2.6436 14.5803L4.34106 15.7533C4.65337 15.9572 5.03582 16.013 5.39087 15.9059L7.2801 15.3093C7.31188 15.3048 7.34421 15.3048 7.37599 15.3093C7.71625 15.2749 8.39731 15.4772 8.55511 16.5217C8.5836 16.7876 8.4006 17.0282 8.14308 17.0637L8.08061 17.0688L8.08006 17.0699Z" fill="#354961"/>
<path d="M8.93805 18.9972C8.89366 19.0017 8.84874 19.0017 8.80381 18.9972C8.6734 18.9578 8.56491 18.8626 8.50629 18.7358L7.49921 16.5668C7.3699 16.3364 7.44223 16.0417 7.66249 15.9014L18.0757 9.1825C18.1858 9.11208 18.319 9.09123 18.445 9.12334C18.5694 9.15489 18.6768 9.23658 18.742 9.34982L19.9359 11.4648C20.0652 11.6952 19.9929 11.9899 19.7726 12.1301L9.19173 18.9184C9.11557 18.9685 9.02791 18.9961 8.9375 18.9972H8.93805ZM8.54957 16.5324L9.13913 17.804L18.8713 11.5436L18.1667 10.3014L8.54957 16.5324Z" fill="#354961"/>
<path d="M5.45274 10.9719C5.45274 11.3477 5.15632 11.6519 4.79086 11.6519C4.42539 11.6519 4.12952 11.3471 4.12952 10.9719C4.12952 10.5967 4.42594 10.2919 4.79086 10.2919C5.15577 10.2919 5.45274 10.5967 5.45274 10.9719Z" fill="#354961"/>
<path d="M4.78647 12.1403C4.55141 12.1414 4.32238 12.067 4.13006 11.9284C3.93774 11.7898 3.79199 11.5932 3.71255 11.3662C3.58324 10.9971 3.64132 10.5864 3.86815 10.2709C4.09445 9.95544 4.45936 9.77741 4.84071 9.796C5.22152 9.81459 5.56835 10.0281 5.7645 10.3645C5.96066 10.7008 5.98093 11.1155 5.81765 11.4698C5.68944 11.7515 5.45603 11.9684 5.17056 12.0715C5.04783 12.1177 4.91797 12.1414 4.78702 12.1408L4.78647 12.1403ZM4.61387 11.0309C4.64784 11.1267 4.74976 11.1774 4.844 11.1442C4.89057 11.1301 4.92893 11.0957 4.94975 11.0507C4.97057 11.0056 4.97221 10.9538 4.95413 10.9076C4.94043 10.8608 4.90701 10.8225 4.86318 10.8039C4.81879 10.7853 4.76893 10.7853 4.72401 10.8039C4.63086 10.8388 4.58155 10.9442 4.61387 11.0405V11.0304V11.0309Z" fill="#354961"/>
<path d="M4.30707 13.0867L6.59409 11.2332C6.59409 11.2332 5.39524 10.4788 4.30707 13.0867Z" fill="#354961"/>
<path d="M3.0797 15.9504C2.81451 15.9504 2.60027 15.7296 2.60027 15.4574V14.1859C2.60027 14.1419 2.5789 14.1008 2.54329 14.076C2.50767 14.0512 2.46274 14.0467 2.42274 14.0631L1.73236 14.3391C1.61182 14.4169 1.46334 14.4349 1.328 14.3893C1.19266 14.3431 1.08418 14.2377 1.03212 14.1014C0.980071 13.965 0.989385 13.8118 1.05788 13.6839C1.12637 13.5554 1.24691 13.4653 1.38663 13.4371L2.07701 13.1611C2.41179 13.0304 2.78821 13.0766 3.08408 13.285C3.37941 13.4935 3.55694 13.8377 3.55858 14.2062V15.4586C3.55858 15.7307 3.3438 15.9515 3.07915 15.9515L3.0797 15.9504Z" fill="#354961"/>
<path d="M9.54238 16.6851C9.35225 16.6868 9.17911 16.5724 9.10131 16.3944C8.406 14.6693 5.77872 15.182 5.7453 15.1865C5.48065 15.2395 5.22368 15.062 5.17218 14.7899C5.12067 14.5178 5.29327 14.2535 5.55791 14.2006C5.69708 14.1713 8.9857 13.5302 9.97853 15.995C10.0278 16.1155 10.0284 16.2519 9.97962 16.373C9.93086 16.4941 9.83771 16.5905 9.71991 16.6406C9.66402 16.6665 9.60375 16.6812 9.54238 16.6851Z" fill="#354961"/>
<path d="M4.98812 14.0726C4.77498 14.0743 4.58595 13.9307 4.52513 13.7205C4.46431 13.5104 4.5454 13.2839 4.72457 13.165C4.86374 13.0715 8.14304 10.9712 10.6837 12.9431C10.7911 13.0197 10.8635 13.138 10.8843 13.271C10.9051 13.4039 10.8717 13.5397 10.7922 13.6462C10.7128 13.7532 10.5944 13.8225 10.4646 13.8372C10.3342 13.8524 10.2043 13.8124 10.1035 13.7262C8.07565 12.1487 5.27085 13.9679 5.24674 13.9876C5.17003 14.0405 5.08017 14.0698 4.98812 14.0715V14.0726Z" fill="#354961"/>
<path d="M6.54584 6.48108C6.28119 6.48108 6.06641 6.26023 6.06641 5.98812C6.10038 5.16107 6.18969 4.3374 6.33489 3.52331C6.3842 3.19654 6.41269 2.86752 6.42091 2.53738C6.45926 1.70413 6.49762 0.846659 7.03458 0.353697C7.32991 0.0889056 7.71948 -0.0361661 8.10905 0.00834142C9.7676 0.112004 12.4239 2.87259 12.7598 4.85402C12.8036 5.1205 12.6299 5.37346 12.3713 5.42135C12.2458 5.44445 12.1171 5.41515 12.013 5.34022C11.9083 5.26529 11.8376 5.15093 11.8152 5.02191C11.556 3.51373 9.27393 1.07821 8.05152 0.994267C7.91892 0.967787 7.7814 0.9999 7.67291 1.08328C7.43785 1.30526 7.40443 1.98526 7.38032 2.56217C7.36936 2.93682 7.33539 3.31091 7.2795 3.68105C7.14142 4.44613 7.0565 5.22022 7.02527 5.9977C7.01979 6.26643 6.80719 6.48108 6.54584 6.48108Z" fill="#354961"/>
<path d="M18.0187 10.1386C17.8171 10.1386 17.6368 10.0084 17.5678 9.81351C15.6309 4.27768 11.0716 3.16331 11.019 3.15373C10.7763 3.09063 10.6218 2.84556 10.664 2.59147C10.7215 2.32611 10.9763 2.15879 11.2344 2.21682C11.4404 2.26639 16.3547 3.46415 18.4691 9.50252C18.5589 9.7583 18.4302 10.0406 18.1814 10.1335C18.1277 10.1448 18.0724 10.1465 18.0181 10.1386H18.0187Z" fill="#354961"/>
<path d="M5.20345 5.54922C5.14756 5.54922 5.09277 5.53908 5.04017 5.51992C4.76676 5.42133 4.11473 4.92837 3.98542 2.56215C3.92789 1.6258 4.28733 1.18692 4.59909 0.984665C5.49549 0.398181 6.91022 1.12269 7.18308 1.27537C7.41595 1.40439 7.50307 1.70355 7.37705 1.94298C7.25157 2.18242 6.96063 2.272 6.72722 2.14299C6.24779 1.88665 5.4281 1.60552 5.11633 1.81284C4.94374 1.92608 4.92456 2.25172 4.93881 2.50299C5.03469 4.13963 5.37495 4.54864 5.41823 4.60273C5.63412 4.69569 5.75301 4.93569 5.69932 5.17006C5.64617 5.40443 5.43632 5.56443 5.20235 5.54922H5.20345Z" fill="#354961"/>
</svg>
