<svg width="173" height="109" viewBox="0 0 173 109" fill="none" xmlns="http://www.w3.org/2000/svg">
<path d="M4.06465 104.474H169M119.934 79.7851L169 79.988M4.06465 79.988L87.0815 79.7851M3.99994 55.2837H168.934" stroke="#D4D4D4" stroke-width="8" stroke-linecap="round" stroke-linejoin="round"/>
<path d="M130.685 20.2255V1.2334M138.909 5.98186L122.461 15.477M122.461 5.98186L138.909 15.477M100.953 20.2255V1.2334M109.176 5.98186L92.7289 15.477M92.7289 5.98186L109.176 15.477M72.0945 20.2255V1.2334M80.3181 5.98186L63.8708 15.477M63.8708 5.98186L80.3181 15.477M42.3619 20.2255V1.2334M50.5856 5.98186L34.1382 15.477M34.1382 5.98186L50.5856 15.477" stroke="white" stroke-width="2" stroke-linecap="round" stroke-linejoin="round"/>
</svg>
