<svg width="22" height="15" viewBox="0 0 22 15" fill="none" xmlns="http://www.w3.org/2000/svg">
<path d="M20.2104 11.6229C20.0275 11.6229 19.8635 11.5131 19.7957 11.3453C19.4656 10.5254 18.9042 9.14072 18.784 8.94219L18.6281 8.66857C18.5048 8.45694 18.5792 8.18634 18.7932 8.0649C19.0071 7.94296 19.2807 8.01603 19.404 8.22766L19.5599 8.50128C19.7382 8.81873 20.4779 10.6484 20.6251 11.0102C20.6689 11.119 20.6674 11.2405 20.6205 11.3478C20.5737 11.4551 20.4855 11.5398 20.3755 11.5831C20.3235 11.6063 20.2675 11.6199 20.2104 11.6229Z" fill="#354961"/>
<path d="M1.1498 5.32666C0.903231 5.32666 0.704041 5.12914 0.704041 4.88575C0.704041 4.64237 0.903231 4.44484 1.1498 4.44484C1.21654 4.41411 1.55531 4.18483 2.24204 2.88377C2.35972 2.67465 2.62462 2.59655 2.83859 2.70791C3.05306 2.81927 3.13814 3.07979 3.03065 3.29394C2.24611 4.71796 1.69337 5.32666 1.1498 5.32666Z" fill="#354961"/>
<path d="M9.99369 3.20127C9.99369 3.56408 9.69617 3.85835 9.32938 3.85835C8.96258 3.85835 8.66507 3.56408 8.66507 3.20127C8.66507 2.83847 8.96258 2.54419 9.32938 2.54419C9.69617 2.54419 9.99369 2.83847 9.99369 3.20127Z" fill="#354961"/>
<path d="M9.32985 4.29925C9.0354 4.29925 8.75317 4.18336 8.54481 3.97777C8.33645 3.77167 8.21979 3.49302 8.21979 3.20126C8.21979 2.90951 8.33696 2.63085 8.54481 2.42476C8.75317 2.21866 9.03489 2.10327 9.32985 2.10327C9.62482 2.10327 9.90654 2.21866 10.1149 2.42476C10.3233 2.63085 10.4399 2.91001 10.4399 3.20126C10.4389 3.49201 10.3217 3.77067 10.1134 3.97626C9.90501 4.18185 9.6238 4.29774 9.32985 4.29925ZM9.32985 2.97652C9.24172 2.97652 9.16174 3.02893 9.12812 3.11006C9.09449 3.19068 9.11283 3.2839 9.1755 3.34538C9.23816 3.40736 9.33189 3.4255 9.41391 3.39224C9.49542 3.35898 9.5484 3.27987 9.5484 3.1927C9.54382 3.0768 9.44754 2.98509 9.32985 2.98559V2.97652Z" fill="#354961"/>
<path d="M8.34023 12.8174C8.12473 12.822 7.93726 12.6733 7.89447 12.4647C7.70292 11.5476 6.69983 10.3 5.74158 10.1276L2.20658 9.4882C2.04203 9.45393 1.91111 9.33098 1.86781 9.17074L0.477039 4.14891C0.391963 3.83901 0.446982 3.50745 0.628342 3.24088C0.809703 2.97432 1.09957 2.79897 1.42205 2.76017L4.48428 2.46035C5.31671 2.37771 6.08851 1.99273 6.65042 1.37999C7.46399 0.494646 8.6194 -0.0067314 9.82881 -0.000180745H13.5105L16.5773 0.440729C17.3206 0.545539 18.0084 0.889197 18.5346 1.4193C19.0603 1.9494 19.3956 2.6357 19.4878 3.37291L19.9024 6.63564C19.9203 6.76111 19.9294 6.88809 19.9294 7.01457C19.9294 8.05965 19.3854 9.03066 18.4903 9.58545C17.5952 10.1402 16.4744 10.1997 15.5238 9.74367C14.5737 9.28765 13.9272 8.37962 13.8136 7.34109L13.2074 3.32C13.1896 3.2041 13.2191 3.08619 13.2894 2.99196C13.3597 2.89773 13.4652 2.83474 13.5818 2.81761C13.8238 2.78335 14.049 2.94862 14.0857 3.18797L14.6965 7.22671C14.7648 7.97147 15.2187 8.62805 15.8957 8.96062C16.5728 9.29319 17.3761 9.25388 18.017 8.85732C18.6579 8.46075 19.0446 7.76336 19.0384 7.01557C19.0446 6.92739 19.0446 6.83921 19.0384 6.75103L18.6238 3.48376C18.555 2.93855 18.3069 2.43112 17.9177 2.03909C17.5285 1.64706 17.02 1.39259 16.4704 1.31449L13.4438 0.873576H9.87771C8.92608 0.873576 8.01928 1.27317 7.38146 1.97157C6.66876 2.74505 5.69267 3.23181 4.64017 3.33814L1.57794 3.63795C1.51426 3.64652 1.4572 3.68179 1.42205 3.73521C1.38282 3.78862 1.36958 3.85665 1.38639 3.92064L2.69717 8.6734L5.91122 9.25993C7.2485 9.49827 8.51904 11.0543 8.77732 12.2889C8.82674 12.5262 8.6734 12.7585 8.43396 12.8089L8.34023 12.8179V12.8174Z" fill="#354961"/>
<path d="M7.88562 4.85058L11.144 3.76619C11.144 3.76619 10.1144 2.47873 7.88562 4.85058Z" fill="#354961"/>
<path d="M8.20652 14.9914C8.00427 15.0005 7.82138 14.874 7.76076 14.683L7.12753 12.6417C7.08728 12.5153 7.10715 12.3777 7.18102 12.2668C7.25387 12.1555 7.37308 12.0829 7.50655 12.0683L20.8345 10.7456C21.0332 10.7345 21.215 10.8554 21.2802 11.0409L21.9756 13.0514C22.0199 13.1784 22.0031 13.3185 21.9303 13.4319C21.8574 13.5452 21.7362 13.6193 21.6012 13.6334L8.22843 15L8.20652 14.9909V14.9914ZM8.14386 12.8841L8.52288 14.0743L20.9685 12.8045L20.5894 11.6581L8.14386 12.8836V12.8841Z" fill="#354961"/>
</svg>
