<svg width="42" height="38" viewBox="0 0 42 38" fill="none" xmlns="http://www.w3.org/2000/svg">
<path fill-rule="evenodd" clip-rule="evenodd" d="M32.9687 21.0064C32.9687 14.4768 27.5826 9.13307 20.9996 9.13307C14.4174 9.13307 9.03058 14.476 9.03058 21.0064V30.4676H32.9687V21.0064ZM20.9996 0C20.4566 0 20.0155 0.436066 20.0155 0.976208V5.31179C20.0155 5.85042 20.4566 6.28801 20.9996 6.28801C21.5426 6.28801 21.9837 5.85042 21.9837 5.31179V0.976208C21.9837 0.437584 21.5426 0 20.9996 0ZM0 20.8316C0 21.3703 0.441113 21.8078 0.984081 21.8078H5.35463C5.8976 21.8078 6.33871 21.3703 6.33871 20.8316C6.33871 20.293 5.8976 19.8554 5.35463 19.8554H0.984081C0.441113 19.8554 0 20.293 0 20.8316ZM2.81593 10.4154C2.54483 10.8811 2.70412 11.4775 3.17357 11.7464V11.7457L6.95903 13.9138C7.42848 14.1828 8.02965 14.0247 8.30075 13.5591C8.57185 13.0934 8.41256 12.497 7.94311 12.2281L4.15765 10.0607C3.6882 9.79172 3.08703 9.94974 2.81593 10.4154ZM10.5048 2.7934C10.0353 3.06158 9.87298 3.6549 10.1433 4.12059L12.3282 7.87577C12.597 8.34146 13.1967 8.501 13.6661 8.23434C14.1356 7.96769 14.2979 7.37285 14.0276 6.90716L11.8427 3.15198C11.5723 2.68629 10.9742 2.52523 10.5048 2.7934ZM41.9992 20.8309C41.9992 20.2922 41.5581 19.8547 41.0152 19.8547H36.6446C36.1016 19.8547 35.6605 20.2922 35.6605 20.8309C35.6605 21.3695 36.1016 21.8071 36.6446 21.8071H41.0152C41.5581 21.8071 41.9992 21.3695 41.9992 20.8309ZM39.1825 10.4147C38.9114 9.94898 38.3103 9.79096 37.8408 10.0599V10.0607L34.0554 12.2281C33.5859 12.497 33.4266 13.0934 33.6977 13.5591C33.9688 14.0247 34.57 14.1828 35.0394 13.9138L38.8249 11.7457C39.2943 11.4767 39.4536 10.8804 39.1825 10.4147ZM31.4952 2.79264C31.0258 2.52447 30.4277 2.68552 30.1573 3.15122L27.9724 6.9064C27.7021 7.37209 27.8645 7.96693 28.3339 8.23359C28.8033 8.50176 29.403 8.3407 29.6718 7.87501L31.8567 4.11983C32.127 3.65414 31.9647 3.0593 31.4952 2.79264ZM35.7448 35.1025C35.7448 33.6272 34.5279 32.42 33.0406 32.42H8.95859H8.9563C7.46983 32.42 6.25217 33.6272 6.25217 35.1025V38H35.7448V35.1025ZM19.6459 26C18.0665 26 16.8791 24.6233 17.0098 22.9375C17.1787 20.7733 18.976 19 21.0021 19C22.8702 19 24.6458 20.6158 24.9562 22.5875C25.2503 24.4658 24.0303 26 22.2548 26H19.6459ZM20.5 18C21.3284 18 22 17.3284 22 16.5C22 15.6716 21.3284 15 20.5 15C19.6716 15 19 15.6716 19 16.5C19 17.3284 19.6716 18 20.5 18ZM25 17C25 17.5523 24.5523 18 24 18C23.4477 18 23 17.5523 23 17C23 16.4477 23.4477 16 24 16C24.5523 16 25 16.4477 25 17ZM26 21C26.5523 21 27 20.5523 27 20C27 19.4477 26.5523 19 26 19C25.4477 19 25 19.4477 25 20C25 20.5523 25.4477 21 26 21ZM18 18.5C18 19.3284 17.3284 20 16.5 20C15.6716 20 15 19.3284 15 18.5C15 17.6716 15.6716 17 16.5 17C17.3284 17 18 17.6716 18 18.5Z" fill="#EA4335"/>
</svg>
