<svg width="24" height="25" viewBox="0 0 24 25" fill="none" xmlns="http://www.w3.org/2000/svg">
<path d="M15.58 13C15.58 14.98 13.98 16.58 12 16.58C10.02 16.58 8.41998 14.98 8.41998 13C8.41998 11.02 10.02 9.42 12 9.42C13.98 9.42 15.58 11.02 15.58 13Z" stroke="#292D32" stroke-width="1.5" stroke-linecap="round" stroke-linejoin="round"/>
<path d="M12 21.27C15.53 21.27 18.82 19.19 21.11 15.59C22.01 14.18 22.01 11.81 21.11 10.4C18.82 6.8 15.53 4.72 12 4.72C8.47003 4.72 5.18003 6.8 2.89003 10.4C1.99003 11.81 1.99003 14.18 2.89003 15.59C5.18003 19.19 8.47003 21.27 12 21.27Z" stroke="#292D32" stroke-width="1.5" stroke-linecap="round" stroke-linejoin="round"/>
</svg>
