<svg width="173" height="223" viewBox="0 0 173 223" fill="none" xmlns="http://www.w3.org/2000/svg">
<path d="M4.06471 218.474H169M119.934 193.785L169 193.988M4.06471 193.988L87.0816 193.785M4 169.284H168.934" stroke="#D4D4D4" stroke-width="8" stroke-linecap="round" stroke-linejoin="round"/>
<path d="M168.909 218.474C168.969 218.474 169 218.474 169 218.474" stroke="#161868" stroke-width="8" stroke-linecap="round" stroke-linejoin="round"/>
<path d="M130.685 134.226V115.233M138.909 119.982L122.461 129.477M122.461 119.982L138.909 129.477M100.953 134.226V115.233M109.176 119.982L92.7288 129.477M92.7288 119.982L109.176 129.477M72.0944 134.226V115.233M80.3181 119.982L63.8708 129.477M63.8708 119.982L80.3181 129.477M42.3619 134.226V115.233M50.5855 119.982L34.1382 129.477M34.1382 119.982L50.5855 129.477" stroke="#0069DE" stroke-width="2" stroke-linecap="round" stroke-linejoin="round"/>
<path d="M113.045 58.2012C113.045 72.6547 101.33 84.3694 86.8769 84.3694C72.4234 84.3694 60.707 72.6547 60.707 58.2012V32.4493H113.045V58.2012Z" fill="#4285F4"/>
<path d="M72.6526 23.2409C72.6526 23.2409 72.6019 17.8715 72.6019 17.2751C72.6019 9.3925 78.9944 3 86.8771 3C94.7597 3 101.15 9.3925 101.15 17.2751V32.4492" stroke="#423EAF" stroke-width="5.73" stroke-linejoin="round"/>
<path d="M92.8743 52.2022C92.8743 55.5147 90.1896 58.2012 86.877 58.2012C83.5645 58.2012 80.8781 55.5147 80.8781 52.2022C80.8781 48.8896 83.5645 46.205 86.877 46.205C90.1896 46.205 92.8743 48.8896 92.8743 52.2022Z" fill="#423EAF"/>
<path d="M86.877 56.5641V63.4464" stroke="#423EAF" stroke-width="3.82" stroke-linecap="round" stroke-linejoin="round"/>
<path d="M64.9167 39.0709C64.9167 37.7382 65.9976 36.6591 67.3303 36.6591C68.6631 36.6591 69.7422 37.7382 69.7422 39.0709C69.7422 40.4036 68.6631 41.4845 67.3303 41.4845C65.9976 41.4845 64.9167 40.4036 64.9167 39.0709ZM108.835 39.0709C108.835 37.7382 107.756 36.6591 106.423 36.6591C105.091 36.6591 104.01 37.7382 104.01 39.0709C104.01 40.4036 105.091 41.4845 106.423 41.4845C107.756 41.4845 108.835 40.4036 108.835 39.0709Z" fill="#354961"/>
</svg>
