<svg width="23" height="24" viewBox="0 0 23 24" fill="none" xmlns="http://www.w3.org/2000/svg">
<g clip-path="url(#clip0_65_1564)">
<path d="M18.9899 12.7326L8.60345 17.5065C7.94726 17.8082 7.19065 17.5437 6.91441 16.9158C6.84681 16.7595 6.81228 16.5909 6.81301 16.4206C6.81374 16.2503 6.84971 16.082 6.91865 15.9263L8.27771 12.7882C8.54219 12.1894 8.55863 11.5102 8.32344 10.8993L7.11617 7.82429C6.86538 7.18412 7.20244 6.44166 7.86853 6.16494C8.02841 6.09717 8.20014 6.06177 8.37378 6.0608C8.54743 6.05983 8.71954 6.0933 8.88017 6.15929L19.0465 10.433C19.6885 10.7027 19.9605 11.4423 19.6527 12.0848C19.5165 12.3691 19.2808 12.5991 18.9904 12.733L18.9899 12.7326Z" fill="#F5F6F7"/>
</g>
<defs>
<clipPath id="clip0_65_1564">
<rect width="16" height="16" fill="white" transform="translate(11.3135 0.686279) rotate(45)"/>
</clipPath>
</defs>
</svg>
