<svg width="29" height="28" viewBox="0 0 29 28" fill="none" xmlns="http://www.w3.org/2000/svg">
<path d="M26.477 12.6715C26.5823 12.7461 26.7066 12.7788 26.8312 12.7788C26.8694 12.7788 26.9076 12.7742 26.9508 12.7649C27.1135 12.7322 27.2571 12.6436 27.3478 12.5036L28.5965 10.6786C28.7831 10.4125 28.7161 10.0439 28.4482 9.85238L24.9604 7.37851V2.43536C24.9604 2.09924 24.678 1.82856 24.3384 1.82856H20.5923C20.2477 1.82856 19.9703 2.10404 19.9703 2.43536V3.84025L14.7218 0.115493C14.5018 -0.0384977 14.2051 -0.0384977 13.9849 0.115493L0.254032 9.8568C-0.0138054 10.0529 -0.080874 10.4169 0.105804 10.683L1.35444 12.508C1.45013 12.648 1.59366 12.7414 1.7515 12.7693C1.91895 12.802 2.08641 12.7647 2.22524 12.6714L2.49308 12.4892V26.7862H1.87111C1.52659 26.7862 1.24914 27.0617 1.24914 27.393C1.24914 27.7243 1.53151 27.9998 1.87111 27.9998L26.8362 28C27.1807 28 27.4582 27.7245 27.4582 27.3932C27.4582 27.0619 27.1758 26.7864 26.8362 26.7864H26.2143V12.4889L26.4821 12.671L26.477 12.6715ZM21.2142 3.03743H23.7117V6.49151L21.2142 4.71779V3.03743ZM18.0948 26.7818H10.6071V21.9086C10.6071 19.8921 12.2863 18.2538 14.3532 18.2538C16.4201 18.2538 18.0994 19.8921 18.0994 21.9086V26.7818H18.0948ZM24.9602 26.7818H19.3431V21.9086C19.3431 19.2247 17.104 17.0354 14.3481 17.0354C11.5924 17.0354 9.35309 19.2199 9.35309 21.9086V26.7818H3.74581V11.6398L14.3529 4.39559L24.96 11.6398V26.7866L24.9602 26.7818ZM14.7074 3.14945C14.6021 3.07485 14.4778 3.04214 14.3533 3.04214C14.229 3.04214 14.1045 3.07944 13.9992 3.14945L2.03332 11.3176L1.47352 10.4962L14.353 1.36144L27.2326 10.4962L26.6728 11.3176L14.7074 3.14945Z" fill="#354961"/>
</svg>
