<svg width="54" height="85" viewBox="0 0 54 85" fill="none" xmlns="http://www.w3.org/2000/svg">
<path d="M53.0451 58.2011C53.0451 72.6547 41.3304 84.3693 26.8769 84.3693C12.4234 84.3693 0.70697 72.6547 0.70697 58.2011V32.4492H53.0451V58.2011Z" fill="#4D7ABC"/>
<path d="M12.6526 23.2409C12.6526 23.2409 12.6019 17.8715 12.6019 17.2751C12.6019 9.3925 18.9944 3 26.8771 3C34.7597 3 41.1504 9.3925 41.1504 17.2751V32.4492" stroke="#F5F6F7" stroke-width="5.73" stroke-linejoin="round"/>
<path d="M32.8742 52.2021C32.8742 55.5146 30.1895 58.201 26.877 58.201C23.5644 58.201 20.878 55.5146 20.878 52.2021C20.878 48.8895 23.5644 46.2048 26.877 46.2048C30.1895 46.2048 32.8742 48.8895 32.8742 52.2021Z" fill="white"/>
<path d="M26.877 56.5642V63.4464" stroke="#F5F6F7" stroke-width="3.82" stroke-linecap="round" stroke-linejoin="round"/>
<path d="M4.91675 39.071C4.91675 37.7383 5.99761 36.6592 7.33034 36.6592C8.66305 36.6592 9.74217 37.7383 9.74217 39.071C9.74217 40.4037 8.66305 41.4846 7.33034 41.4846C5.99761 41.4846 4.91675 40.4037 4.91675 39.071ZM48.8353 39.071C48.8353 37.7383 47.7561 36.6592 46.4234 36.6592C45.0907 36.6592 44.0098 37.7383 44.0098 39.071C44.0098 40.4037 45.0907 41.4846 46.4234 41.4846C47.7561 41.4846 48.8353 40.4037 48.8353 39.071Z" fill="white"/>
</svg>
