<svg width="16" height="16" viewBox="0 0 16 16" fill="none" xmlns="http://www.w3.org/2000/svg">
<path d="M14.3534 10.62C14.2467 10.44 13.9467 10.16 13.2 10.2933C12.7867 10.3667 12.3667 10.4 11.9467 10.38C10.3934 10.3133 8.98672 9.6 8.00672 8.5C7.14005 7.53333 6.60672 6.27333 6.60005 4.91333C6.60005 4.15333 6.74672 3.42 7.04672 2.72666C7.34005 2.05333 7.13338 1.7 6.98672 1.55333C6.83338 1.4 6.47338 1.18666 5.76672 1.48C3.04005 2.62666 1.35338 5.36 1.55338 8.28666C1.75338 11.04 3.68672 13.3933 6.24672 14.28C6.86005 14.4933 7.50672 14.62 8.17338 14.6467C8.28005 14.6533 8.38672 14.66 8.49338 14.66C10.7267 14.66 12.82 13.6067 14.14 11.8133C14.5867 11.1933 14.4667 10.8 14.3534 10.62Z" fill="#F5F6F7"/>
</svg>
