<svg width="41" height="35" viewBox="0 0 41 35" fill="none" xmlns="http://www.w3.org/2000/svg">
<path fill-rule="evenodd" clip-rule="evenodd" d="M35.3965 11.2368C33.7178 12.8545 32.7767 15.5546 33.1129 16.9892C33.2963 17.7185 33.3698 18.5073 33.1949 19.2442C33.02 19.9854 32.5384 20.6972 31.7164 21.0142C29.6829 21.803 27.9214 22.7306 26.6482 24.0079C26.6322 24.4688 26.671 24.9456 26.7851 25.4499L28.305 31.6816C29.0712 31.966 29.786 32.3215 30.221 32.9262C30.6435 33.5067 30.8758 34.2144 30.9527 34.9981L34.969 35.0006C34.969 34.344 34.4892 33.7727 33.9282 33.7267L33.0639 34.206C32.3382 34.6075 31.7874 33.5042 32.5359 33.1487C34.4495 32.2403 35.1642 30.5649 34.9369 29.1956C34.7122 27.8247 33.6063 26.6586 31.2906 26.6586C30.4829 26.6745 30.4829 25.4658 31.2906 25.4801C34.0473 25.4801 35.7995 27.0902 36.1138 29.0066C36.325 30.288 35.9169 31.674 34.9369 32.7907C35.7885 33.1889 36.4095 34.0186 36.5903 34.9998H40.0102C39.7914 34.4352 39.6351 33.7652 39.0741 33.7192C38.8384 33.7 38.6365 33.546 38.5596 33.3235C37.4368 30.068 37.8314 28.5992 38.1431 27.3822C38.4548 26.1651 38.7091 25.1563 37.4089 21.89C37.4064 21.8841 37.403 21.8791 37.4005 21.8716C37.2146 21.3429 37.2552 20.7248 37.6117 20.2773C37.9648 19.8298 38.5241 19.588 39.222 19.4584C40.0567 19.3036 40.3523 19.1414 40.5061 18.9624C40.6599 18.7859 40.7604 18.4203 40.9471 17.7453C41.1009 17.179 40.9091 17.0268 40.561 16.8076C39.8607 16.366 39.4222 15.696 39.167 15.0753C38.9068 14.4304 38.1566 13.8257 37.3929 13.6224C37.0744 13.5413 36.886 13.2159 36.9705 12.9014C37.0938 12.4455 36.9764 12.1695 36.8775 11.9796L36.2236 12.6212C35.8012 13.2368 35.0324 12.7901 35.3847 12.1302C35.6348 11.773 35.5832 11.4242 35.3965 11.2368ZM27.4483 -0.000189994C26.3339 0.00817461 25.2635 0.305954 24.5463 0.834597C23.905 1.30636 23.3855 2.43725 22.6057 3.46108L20.6913 5.96795C19.9934 6.8822 19.8405 7.6484 19.9309 8.27826C20.023 8.90727 20.388 9.43341 20.856 9.79643C21.3241 10.1569 21.8935 10.3309 22.2905 10.2958C22.6876 10.2607 22.9039 10.1436 23.0247 9.66678L24.4567 3.99809C24.6485 3.23356 25.8059 3.51796 25.615 4.28249L24.183 9.94783C23.9557 10.8479 23.1835 11.4008 22.3953 11.471C21.6096 11.5396 20.8019 11.2485 20.1227 10.7257C19.8726 10.5334 19.6403 10.3033 19.4409 10.0449C18.9044 10.2807 18.4964 10.6421 18.0664 11.1482L8.18597 22.7959C6.03333 25.3337 6.18709 29.4056 6.99391 32.3926C7.1012 32.7882 6.78101 33.168 6.36957 33.1353C4.55993 32.9831 2.98599 31.8882 1.71198 29.649C1.59116 29.4382 1.45177 29.3621 1.25745 29.332C1.06567 29.3002 0.811382 29.3487 0.586655 29.4733C0.137199 29.7251 -0.177082 30.1642 0.110165 30.8928C0.529205 31.9476 1.82687 33.1462 3.38813 33.853C4.95108 34.5607 6.73116 34.7882 8.07784 34.2219C8.27299 34.1408 8.49688 34.165 8.66669 34.293C9.253 34.7296 10.0683 34.9981 10.9883 34.9981L21.7177 34.9956C21.4111 33.7401 20.4235 32.656 19.1773 32.5013C18.7938 32.8016 18.3671 33.076 17.8906 33.3118C17.1793 33.6615 16.6479 32.6042 17.3601 32.2545C19.6454 31.1237 20.5358 29.1044 20.2596 27.414C20.2241 27.2107 20.1751 27.0099 20.1117 26.8226C19.6437 25.4023 18.2826 24.2965 15.8385 24.2965C15.0089 24.3316 15.0089 23.0794 15.8385 23.1162C18.765 23.1162 20.6904 24.667 21.2894 26.6302L24.8901 33.301C25.1605 33.8053 25.3717 34.2821 25.6015 34.5749C25.8313 34.8676 25.9985 34.9956 26.4345 34.9956H29.6347C29.5553 34.4854 29.5004 33.9517 29.2546 33.613C28.9039 33.1278 28.3903 32.7757 27.6173 32.5699C27.4044 32.5155 27.2421 32.3474 27.1906 32.1366L25.6217 25.7143C25.441 24.9656 25.4384 24.2312 25.4984 23.5453C25.6294 21.992 26.2723 20.6177 26.8814 19.2376C27.755 17.2551 28.5863 15.2334 28.1571 12.2949C27.9104 10.6111 29.1811 8.99092 30.9163 8.6647L35.7708 7.63502C36.2861 7.52711 36.4585 7.052 36.5235 6.64799C36.608 6.11182 36.4416 5.50623 35.9786 5.12229C35.9093 5.06541 35.6365 4.90816 35.2994 4.76178C34.9657 4.61205 34.561 4.45563 34.1546 4.285C33.7491 4.11436 33.3385 3.95376 33.0023 3.73209C32.5587 3.43933 32.247 3.22771 32.1211 2.82621C31.8313 1.89105 31.245 1.19177 30.3993 0.711637C29.5511 0.233182 28.4857 -0.0102275 27.4483 -0.000189994Z" fill="#F99F0D"/>
<path fill-rule="evenodd" clip-rule="evenodd" d="M38.1546 15.8174C37.9316 15.8174 37.7525 15.9964 37.7525 16.2189C37.7525 16.4414 37.9316 16.6188 38.1546 16.6188C38.3776 16.6188 38.5559 16.4389 38.5559 16.2189C38.5559 15.9973 38.376 15.8174 38.1546 15.8174Z" fill="white"/>
<path fill-rule="evenodd" clip-rule="evenodd" d="M29.9807 2.34711C29.6377 2.34711 29.3606 2.6223 29.3606 2.96107C29.3606 3.29984 29.6377 3.57754 29.9807 3.57754C30.3237 3.57754 30.6025 3.30067 30.6025 2.96107C30.6025 2.62147 30.3237 2.34711 29.9807 2.34711Z" fill="white"/>
</svg>
