<svg width="178" height="179" viewBox="0 0 178 179" fill="none" xmlns="http://www.w3.org/2000/svg">
<path d="M131.548 120.312C130.952 96.8437 111.564 75.0958 88.3113 71.8146C63.0454 68.2493 37.9451 85.5743 32.2456 110.473C30.0265 120.096 31.8426 129.759 37.2921 137.616C42.6766 145.464 51.099 150.561 60.8417 151.936L91.2387 156.225C102.215 157.774 112.433 154.844 120.084 148.04C127.734 141.237 131.781 131.341 131.548 120.312Z" fill="#F5F6F7"/>
<path d="M81.5955 61.1952C92.1058 62.6783 101.828 55.3604 103.312 44.8501C104.795 34.3398 97.4766 24.6172 86.9663 23.134C76.456 21.6509 66.7334 28.9689 65.2503 39.4792C63.7672 49.9895 71.0852 59.7121 81.5955 61.1952Z" fill="#F5F6F7"/>
<path d="M123.78 74.8986C132.533 76.1337 140.63 70.0395 141.865 61.2869C143.1 52.5343 137.006 44.4377 128.253 43.2026C119.5 41.9675 111.404 48.0616 110.169 56.8143C108.934 65.5669 115.028 73.6635 123.78 74.8986Z" fill="#F5F6F7"/>
<path d="M143.653 103.538C150.648 104.525 157.119 99.6548 158.106 92.6599C159.093 85.665 154.223 79.1943 147.228 78.2073C140.233 77.2202 133.762 82.0905 132.775 89.0855C131.788 96.0804 136.658 102.551 143.653 103.538Z" fill="#F5F6F7"/>
<path d="M37.5571 75.6491C46.3097 76.8842 54.4063 70.7901 55.6414 62.0375C56.8765 53.2849 50.7824 45.1882 42.0297 43.9531C33.2771 42.718 25.1805 48.8122 23.9454 57.5648C22.7103 66.3174 28.8045 74.414 37.5571 75.6491Z" fill="#F5F6F7"/>
</svg>
