<svg width="35" height="34" viewBox="0 0 35 34" fill="none" xmlns="http://www.w3.org/2000/svg">
<path d="M17.1479 32.1783C15.8713 32.2609 14.6033 32.4381 13.3544 32.7083C12.2005 32.9347 11.047 33.1687 9.88558 33.3512V33.3509C8.96014 33.5307 8.00727 33.5289 7.08237 33.3461C6.13684 33.1281 5.30183 32.587 4.72856 31.8202C4.1553 31.0531 3.88107 30.1112 3.95561 29.164C4.07501 28.074 4.46109 27.0281 5.08126 26.1147C5.6918 25.1685 6.45043 24.3216 7.32969 23.6053C8.27989 22.863 9.15975 22.0384 9.95899 21.1419C10.6699 20.2775 11.3232 19.3672 11.9945 18.4719C12.5557 17.6608 13.1733 16.8881 13.8425 16.1593C14.6803 15.2353 15.8063 14.6071 17.0461 14.3718C18.7599 14.096 20.6913 14.5322 21.8373 16.3125C22.4416 17.2516 23.0086 18.2134 23.6017 19.1596V19.1593C24.8006 21.078 26.2613 22.8281 27.9437 24.3606C28.8153 25.1153 29.5199 26.0364 30.0147 27.0667C30.711 28.599 30.7891 30.1341 29.9901 31.6585C29.7203 32.2124 29.2962 32.6809 28.7662 33.0103C28.2365 33.3394 27.6228 33.516 26.9951 33.5196C25.9382 33.5349 24.883 33.4352 23.8486 33.2224C22.135 32.9348 20.4202 32.6532 18.7049 32.3771C18.1885 32.2942 17.6668 32.2438 17.1478 32.1783L17.1479 32.1783Z" fill="#354961"/>
<path d="M15.8573 5.10833C16.943 8.57321 15.7997 11.9639 13.3038 12.6823C10.8079 13.4004 7.90462 11.1734 6.8187 7.70857C5.73305 4.24369 6.87636 0.853028 9.37223 0.134578C11.8681 -0.583477 14.7717 1.64346 15.8573 5.10833Z" fill="#354961"/>
<path d="M25.6414 0.136712C28.1339 0.860418 29.2685 4.25504 28.1755 7.71864C27.0824 11.1824 24.1757 13.4037 21.6829 12.6803C19.1901 11.9566 18.0555 8.56194 19.1485 5.09834C20.2416 1.63454 23.1486 -0.586994 25.6414 0.136712Z" fill="#354961"/>
<path d="M32.6396 10.9555C34.6339 11.5401 35.5416 14.2817 34.6671 17.0794C33.7925 19.8771 31.4672 21.6714 29.473 21.0868C27.4788 20.5024 26.5711 17.7605 27.4456 14.9628C28.3199 12.1651 30.6454 10.3711 32.6396 10.9555Z" fill="#354961"/>
<path d="M7.55906 14.8708C8.42766 17.9359 7.5131 20.9357 5.51643 21.571C3.51952 22.2063 1.19686 20.2365 0.328262 17.1714C-0.540335 14.1062 0.374228 11.1064 2.37089 10.4711C4.3678 9.83584 6.69047 11.8059 7.55906 14.8708Z" fill="#354961"/>
</svg>
