<svg width="70" height="61" viewBox="0 0 70 61" fill="none" xmlns="http://www.w3.org/2000/svg">
<path d="M69.569 12.343C68.5347 7.87711 65.5066 4.13324 61.3554 2.18774C56.1238 -0.529222 49.9423 -0.725253 44.5496 1.65403C40.8029 3.30354 37.522 5.85295 34.9983 9.0756C32.51 5.84519 29.2268 3.31533 25.4695 1.73213L25.4959 1.6737C20.093 -0.722973 13.8933 -0.534277 8.64552 2.18607C4.49377 4.13157 1.46558 7.87601 0.431342 12.343C-4.21544 36.0508 30.128 58.0716 34.0601 60.5051C34.6348 60.8647 35.3652 60.8647 35.9399 60.5051C39.8714 58.0725 74.2156 36.0523 69.5686 12.343L69.569 12.343ZM34.9996 58.1248C31.2243 55.7169 27.5939 53.0893 24.1263 50.2561C24.9971 48.5229 26.1286 46.933 27.4802 45.5426C29.4522 46.0791 31.4876 46.342 33.5309 46.324C34.018 46.324 34.4725 46.3117 34.8804 46.2926L35.004 46.2875L35.1259 46.2926H35.1253C37.6152 46.4353 40.112 46.1842 42.5233 45.5482C43.8739 46.9375 45.0031 48.5252 45.8722 50.2567C42.4048 53.0893 38.7742 55.7169 34.9995 58.1248L34.9996 58.1248ZM20.0578 34.1667C20.0511 34.3004 20.0505 34.4397 20.046 34.5757C18.1601 34.5886 16.7769 34.2757 16.2589 33.6869C15.3381 32.2976 15.0909 30.5683 15.5853 28.9767C16.2943 25.3794 18.8472 21.2681 21.0472 20.1793C22.2984 19.6439 23.6461 19.3715 25.0063 19.3799C24.0405 21.2243 23.2191 23.1406 22.5495 25.1125L22.4377 25.4142C20.9432 29.4587 20.1937 31.4879 20.0578 34.1666L20.0578 34.1667ZM22.5708 34.2942C22.6877 31.9998 23.3928 30.0903 24.7984 26.2856L24.9096 25.9833C26.6809 21.185 27.4474 19.75 29.0103 18.3079C30.3525 17.0691 32.7155 17.0225 34.4414 16.9882L34.9594 16.9742L35.5835 16.9882C37.3032 17.0208 39.6589 17.0652 40.9926 18.2967C42.5549 19.7388 43.3218 21.1737 45.0933 25.9721L45.2073 26.2822C46.6107 30.0823 47.3152 31.9897 47.4315 34.2824C47.5748 37.0931 47.2456 39.373 45.1725 41.3601C43.5 42.9624 40.2837 43.8219 36.2578 43.7927L36.2583 37.1364C36.7555 36.8988 37.1971 36.5594 37.5544 36.1398C38.16 35.4223 38.546 34.5453 38.6651 33.6139C38.7044 33.2257 38.5617 32.8409 38.278 32.5729C37.3892 31.7555 36.205 31.3369 34.9999 31.4139C33.7942 31.3352 32.6088 31.7527 31.7178 32.569C31.4347 32.8375 31.2914 33.2218 31.3307 33.61C31.451 34.5432 31.838 35.4219 32.4454 36.1404C32.8027 36.5601 33.2443 36.8994 33.7415 37.1365V43.7957C29.7127 43.8367 26.4992 42.9721 24.83 41.372C22.7575 39.3849 22.4283 37.1056 22.5716 34.2943L22.5708 34.2942ZM49.9562 34.5751C49.9512 34.4353 49.9512 34.292 49.9439 34.1543C49.8079 31.4785 49.059 29.4503 47.5675 25.4103L47.4523 25.1008H47.4534C46.7854 23.1338 45.9663 21.2214 45.004 19.3805C46.3608 19.3737 47.704 19.6457 48.9518 20.1788C51.1524 21.2682 53.7047 25.3795 54.4138 28.9768C54.9082 30.5678 54.661 32.2971 53.7402 33.6864C53.2222 34.2746 51.8374 34.5876 49.9569 34.5752L49.9562 34.5751ZM35.6414 34.5032H35.6419C35.4728 34.7072 35.2498 34.8594 34.9986 34.9431C34.7481 34.8594 34.5256 34.7072 34.3571 34.5032C34.2363 34.3611 34.1335 34.2049 34.052 34.0369C34.6734 33.8841 35.3228 33.8847 35.9441 34.0392C35.8632 34.206 35.7621 34.3622 35.6419 34.5032H35.6414ZM47.8399 48.6097H47.841C47.2736 47.5636 46.6275 46.562 45.9089 45.6136C45.6195 45.2394 45.3128 44.8759 44.9993 44.5181C45.6943 44.1579 46.3381 43.7068 46.9139 43.1759C48.6067 41.5747 49.6577 39.4112 49.8707 37.0904C49.941 37.091 50.0202 37.0983 50.0893 37.0983C52.7444 37.0983 54.6046 36.5129 55.6288 35.3494C57.0226 33.7674 57.4558 31.3954 56.8828 28.4898C56.0164 24.0942 52.9585 19.3537 50.0668 17.9226L50.0674 17.9232C47.8797 17.0198 45.5039 16.667 43.1482 16.894C43.001 16.7445 42.8589 16.594 42.6993 16.4468C40.6622 14.5664 37.634 14.509 35.6301 14.4721L34.9587 14.4586L34.3902 14.4721C32.3823 14.512 29.3475 14.5721 27.303 16.4586C27.1474 16.6024 27.008 16.7496 26.8642 16.8956C24.5041 16.667 22.1237 17.0198 19.9309 17.9232C17.0394 19.3541 13.9814 24.0952 13.115 28.4903C12.5425 31.3954 12.9757 33.7673 14.369 35.3506C15.3932 36.5129 17.2539 37.0989 19.9101 37.0989C19.9797 37.0989 20.0589 37.0916 20.1292 37.091L20.1297 37.0904C20.3404 39.4158 21.3921 41.5838 23.0882 43.1883C23.659 43.7186 24.2977 44.1703 24.9882 44.5315C24.6792 44.8855 24.3758 45.2445 24.0899 45.6141L24.0893 45.6136C23.3702 46.5619 22.7247 47.5637 22.1578 48.6097C11.9728 39.9011 0.21177 26.5415 2.90127 12.8265C3.79061 9.11799 6.33059 6.0219 9.79357 4.4246C12.2341 3.17289 14.937 2.51837 17.6797 2.51564C20.0286 2.50889 22.3511 3.00778 24.4894 3.97918C28.0883 5.57864 31.194 8.1118 33.4851 11.3159C33.8301 11.8114 34.3958 12.1075 34.9997 12.1075C35.6037 12.1075 36.1694 11.8114 36.5144 11.3159C38.6588 8.27374 41.5555 5.83997 44.9213 4.25115L45.5527 3.96182C50.2606 1.91565 55.6378 2.08651 60.2069 4.42644C63.6693 6.02317 66.2092 9.11868 67.0986 12.8266C69.7868 26.5414 58.0271 39.9013 47.8421 48.6098L47.8399 48.6097Z" fill="#F5F6F7"/>
</svg>
