<svg width="16" height="16" viewBox="0 0 16 16" fill="none" xmlns="http://www.w3.org/2000/svg">
<path d="M11.3335 2.33331H4.66683C2.66683 2.33331 1.3335 3.33331 1.3335 5.66665V10.3333C1.3335 12.6666 2.66683 13.6666 4.66683 13.6666H11.3335C13.3335 13.6666 14.6668 12.6666 14.6668 10.3333V5.66665C14.6668 3.33331 13.3335 2.33331 11.3335 2.33331ZM11.6468 6.39331L9.56016 8.05998C9.12016 8.41331 8.56016 8.58665 8.00016 8.58665C7.44016 8.58665 6.8735 8.41331 6.44016 8.05998L4.3535 6.39331C4.14016 6.21998 4.10683 5.89998 4.2735 5.68665C4.44683 5.47331 4.76016 5.43331 4.9735 5.60665L7.06016 7.27331C7.56683 7.67998 8.42683 7.67998 8.9335 7.27331L11.0202 5.60665C11.2335 5.43331 11.5535 5.46665 11.7202 5.68665C11.8935 5.89998 11.8602 6.21998 11.6468 6.39331Z" fill="#354961"/>
</svg>
