<svg width="3" height="16" viewBox="0 0 3 16" fill="none" xmlns="http://www.w3.org/2000/svg">
<path d="M-6.55671e-08 1.5C-1.01779e-07 2.32843 0.67157 3 1.5 3C2.32843 3 3 2.32843 3 1.5C3 0.671573 2.32843 -2.93552e-08 1.5 -6.55671e-08C0.67157 -1.01779e-07 -2.93554e-08 0.671573 -6.55671e-08 1.5Z" fill="#354961"/>
<path d="M-3.49691e-07 8C-3.85903e-07 8.82843 0.671569 9.5 1.5 9.5C2.32843 9.5 3 8.82843 3 8C3 7.17157 2.32843 6.5 1.5 6.5C0.67157 6.5 -3.13479e-07 7.17157 -3.49691e-07 8Z" fill="#354961"/>
<path d="M1.5 16C0.671569 16 -6.70026e-07 15.3284 -6.33815e-07 14.5C-5.97605e-07 13.6716 0.671569 13 1.5 13C2.32843 13 3 13.6716 3 14.5C3 15.3284 2.32843 16 1.5 16Z" fill="#354961"/>
</svg>
