<svg width="64" height="59" viewBox="0 0 64 59" fill="none" xmlns="http://www.w3.org/2000/svg">
<path d="M35.7999 23.6633C35.5076 23.9556 35.5076 24.4396 35.7999 24.7314C36.5358 25.4673 37.5033 25.8399 38.4707 25.8399C39.4381 25.8399 40.4055 25.4771 41.1414 24.7314C41.4337 24.4391 41.4337 23.9552 41.1414 23.6633C40.8491 23.371 40.3651 23.371 40.0733 23.6633C39.1866 24.55 37.7551 24.55 36.8685 23.6633C36.5757 23.3608 36.0922 23.3608 35.7999 23.6633H35.7999Z" fill="#0D1218"/>
<path d="M41.6752 18.9464C42.5317 18.9464 43.2272 18.2508 43.2272 17.3943C43.2272 16.5378 42.5317 15.8423 41.6752 15.8423C40.8187 15.8423 40.1232 16.5378 40.1232 17.3943C40.1232 18.2509 40.8187 18.9464 41.6752 18.9464Z" fill="#0D1218"/>
<path d="M35.2561 18.9464C36.1127 18.9464 36.8082 18.2508 36.8082 17.3943C36.8082 16.5378 36.1126 15.8423 35.2561 15.8423C34.3996 15.8423 33.7041 16.5378 33.7041 17.3943C33.7041 18.2509 34.3996 18.9464 35.2561 18.9464Z" fill="#0D1218"/>
<path d="M14.1611 28.34C13.7477 28.34 13.4053 28.6829 13.4053 29.0958C13.4053 29.4285 13.1334 29.7106 12.7905 29.7106C12.4476 29.7106 12.1757 29.4387 12.1757 29.0958C12.1757 28.6824 11.8328 28.34 11.4198 28.34C11.0064 28.34 10.6639 28.6829 10.6639 29.0958C10.6639 30.2651 11.6114 31.2223 12.7904 31.2223C13.9694 31.2223 14.9169 30.2748 14.9169 29.0958C14.9174 28.6727 14.5745 28.34 14.161 28.34H14.1611Z" fill="#0D1218"/>
<path d="M24.7637 35.6475V25.0752C24.7637 24.6618 24.4208 24.3193 24.0079 24.3193H0.755859C0.342431 24.3193 0 24.6622 0 25.0752V26.0125C0 29.1269 1.46164 31.9086 3.72923 33.7125C3.75939 33.7427 3.78955 33.7729 3.82992 33.7933C5.31151 34.9421 7.11549 35.678 9.09075 35.8294V57.6096C9.09075 58.0231 9.43365 58.3655 9.84661 58.3655H36.7762C38.4795 58.3655 39.8604 56.9846 39.8604 55.2813C39.8604 52.5901 38.8224 50.0506 36.9478 48.1255L24.7637 35.6475ZM32.7157 45.9581C31.9599 46.5223 31.0528 46.8248 30.1052 46.8248C27.6562 46.8248 25.6503 44.8291 25.6503 42.3699C25.6503 41.3821 25.9728 40.4448 26.5774 39.669L32.7157 45.9581ZM23.252 25.8313V35.9502C23.252 37.5529 21.9519 38.8531 20.3491 38.8531C18.7465 38.8531 17.4463 37.553 17.4463 35.9502L17.4467 25.8313H23.252ZM36.7779 56.8636H27.6469C27.8283 54.3743 28.8867 52.0561 30.6907 50.2925C30.9932 50.0002 30.9932 49.5264 30.7009 49.2244C30.4086 48.9218 29.9348 48.9218 29.6328 49.2141C27.5365 51.2702 26.317 53.9614 26.1357 56.8738H18.2036L18.2031 45.3035C18.2031 44.8901 17.8602 44.5477 17.4473 44.5477C17.0338 44.5477 16.6914 44.8906 16.6914 45.3035V56.8539H14.6354L14.6349 45.3035C14.6349 44.8901 14.292 44.5477 13.8791 44.5477C13.4656 44.5477 13.1232 44.8906 13.1232 45.3035V56.8539H10.6037V35.114C10.6037 34.7006 10.2608 34.3581 9.84781 34.3581C8.61815 34.3581 7.44896 34.0862 6.40069 33.6023C7.38855 33.1489 7.97315 32.3426 8.18483 31.7982C8.33609 31.4154 8.14446 30.982 7.76166 30.8205C7.37885 30.6693 6.93528 30.8507 6.7738 31.2339C6.71348 31.375 6.1488 32.5642 4.496 32.413C2.66185 30.8809 1.50275 28.5831 1.50275 26.013V25.8316H15.935V35.9506C15.935 38.3796 17.9103 40.3651 20.3495 40.3651C22.2343 40.3651 23.8369 39.1758 24.4615 37.5026L25.5199 38.5809C24.6332 39.6491 24.1492 40.9594 24.1492 42.3704C24.1492 45.656 26.82 48.3369 30.1158 48.3369C31.4664 48.3369 32.7364 47.8836 33.7846 47.047L35.8707 49.194C37.4734 50.837 38.3499 53.0038 38.3499 55.2914C38.3494 56.1581 37.6441 56.8634 36.7774 56.8634L36.7779 56.8636Z" fill="#0D1218"/>
<path d="M51.7336 32.4521C51.5721 32.4419 48.0044 32.4521 45.5048 32.4624V28.6525C47.0671 26.6568 48.3167 24.2078 49.1635 21.8896C50.5546 21.5773 51.774 19.9645 52.1266 17.8482C52.4291 16.0238 52.0157 14.3307 51.0784 13.4235C51.5419 10.2891 51.6227 5.77404 49.0423 3.09296C48.9518 2.98207 46.765 0.462486 40.7177 0.240716C40.4458 0.19014 34.0959 -0.827416 31.0725 1.74227C30.4378 1.88332 28.7845 2.40765 27.4542 4.23163C25.9022 6.36832 25.3477 9.50268 25.7611 13.5441C24.8943 14.4813 24.5314 16.104 24.8136 17.8476C25.1662 19.9639 26.386 21.5769 27.7767 21.889C28.6235 24.2072 29.873 26.6562 31.4353 28.6519V32.4715L27.051 32.4515C26.6376 32.4515 26.2951 32.7842 26.2951 33.2074C26.2951 33.6208 26.6278 33.9633 27.051 33.9633L31.7174 33.9832L37.9161 41.1191C38.0571 41.2805 38.2687 41.3812 38.4905 41.3812C38.7123 41.3812 38.9137 41.2907 39.0649 41.1191L45.2636 33.9832C47.8439 33.973 51.4418 33.9633 51.6635 33.9633C57.7512 34.3563 62.5184 39.6274 62.5184 45.9664V56.8617H41.5744C41.1609 56.8617 40.8185 57.2045 40.8185 57.6175C40.8185 58.0309 41.1614 58.3734 41.5744 58.3734L63.2442 58.3738C63.6576 58.3738 64 58.0309 64 57.618V45.9567C64 38.8311 58.6078 32.8952 51.7344 32.4509L51.7336 32.4521ZM28.6432 5.1591C29.883 3.41535 31.4448 3.20379 31.4954 3.19358C31.6569 3.17363 31.8077 3.1031 31.9288 2.9922C34.3174 0.74457 40.3949 1.72228 40.556 1.74259C45.9583 1.94397 47.8631 4.05057 47.9132 4.10106C50.1404 6.41925 49.9795 10.6018 49.5256 13.4539L49.082 11.7403C49.0314 11.5287 48.8904 11.3575 48.6992 11.2564C48.5883 11.196 48.4672 11.1756 48.3563 11.1756C48.2658 11.1756 48.1749 11.1956 48.0941 11.2262C38.4689 14.8547 32.6035 7.07385 32.3505 6.74114C32.1287 6.43861 31.7255 6.34813 31.403 6.50914C29.3771 7.53736 28.0167 10.5005 27.2103 12.9393C26.8586 8.77721 27.7355 6.43858 28.6427 5.15892L28.6432 5.1591ZM28.2803 20.4276C27.575 20.4578 26.5872 19.3289 26.2948 17.5953C26.2443 17.2831 26.2243 16.9805 26.2243 16.6984C26.2345 16.749 26.2345 16.7889 26.2443 16.8293C26.3148 17.1819 26.6674 17.4543 26.9899 17.4339C27.3527 17.4339 27.665 17.1717 27.7258 16.8191C28.0887 14.8939 29.4394 9.8646 31.5761 8.18166C33.2089 10.026 39.1249 15.7407 47.8234 12.9187L48.8613 16.8697C48.9421 17.1921 49.2344 17.4241 49.5768 17.4339H49.5968C49.9295 17.4339 50.2218 17.2223 50.3225 16.8998C50.3424 16.8293 50.4737 16.4159 50.625 15.7811C50.7257 16.2952 50.7559 16.91 50.6352 17.5852C50.3531 19.3187 49.3653 20.4374 48.6497 20.4175C48.3069 20.4073 48.015 20.6091 47.9041 20.9214C47.0476 23.4005 45.7776 25.8904 44.2352 27.815C44.2153 27.835 44.1948 27.8656 44.1749 27.8856C42.5119 29.9416 40.5464 31.3424 38.4705 31.3424C36.3844 31.3424 34.4189 29.9416 32.7559 27.8856C32.736 27.8656 32.7258 27.835 32.7054 27.815C31.1733 25.8899 29.8935 23.4108 29.0467 20.9311C28.9256 20.6193 28.6231 20.418 28.2806 20.4277L28.2803 20.4276ZM38.4697 39.4664L32.9365 33.1068V30.3251C34.5489 31.8669 36.4137 32.865 38.4697 32.865C40.5258 32.865 42.3804 31.8572 44.0029 30.3251V33.1068L38.4697 39.4664Z" fill="#0D1218"/>
<path d="M55 45.3199L52.5228 48.5196C52.026 49.1601 50.9763 49.1601 50.4795 48.5196L48 45.3199L49.0217 44L51.5011 47.1996L53.9783 44L55 45.3199Z" fill="#0D1218"/>
</svg>
