<svg width="332" height="148" viewBox="0 0 332 148" fill="none" xmlns="http://www.w3.org/2000/svg">
<mask id="mask0_51_1668" style="mask-type:alpha" maskUnits="userSpaceOnUse" x="0" y="2" width="328" height="140">
<path d="M0 10C0 5.58172 3.58172 2 8 2H320C324.418 2 328 5.58172 328 10V134C328 138.418 324.418 142 320 142H7.99999C3.58171 142 0 138.418 0 134V10Z" fill="#34A853"/>
</mask>
<g mask="url(#mask0_51_1668)">
<g opacity="0.1">
<path d="M342.944 -38.2362L302.641 19.3692C294.558 30.9015 277.479 30.9015 269.396 19.3692L229.057 -38.2362L245.679 -62L286.019 -4.39455L326.321 -62L342.944 -38.2362Z" fill="#1F1F1F"/>
<path d="M342.944 126.236L302.641 68.6308C294.558 57.0986 277.479 57.0986 269.396 68.6308L229.057 126.236L245.679 150L286.019 92.3946L326.321 150L342.944 126.236Z" fill="#1F1F1F"/>
<path d="M368.236 100.944L310.631 60.6411C299.098 52.5583 299.098 35.479 310.631 27.3961L368.236 -12.9435L392 3.67897L334.395 44.0186L392 84.321L368.236 100.944Z" fill="#1F1F1F"/>
<path d="M203.764 100.944L261.369 60.6411C272.901 52.5583 272.901 35.479 261.369 27.3961L203.764 -12.9435L180 3.67897L237.605 44.0186L180 84.321L203.764 100.944Z" fill="#1F1F1F"/>
</g>
</g>
</svg>
